<?xml version="1.0" encoding="UTF-8" standalone="no"?>
<svg
   width="32px"
   height="32px"
   viewBox="0 0 32 32"
   id="icon"
   version="1.1"
   sodipodi:docname="builder.svg"
   inkscape:version="1.1.2 (b8e25be8, 2022-02-05)"
   xmlns:inkscape="http://www.inkscape.org/namespaces/inkscape"
   xmlns:sodipodi="http://sodipodi.sourceforge.net/DTD/sodipodi-0.dtd"
   xmlns="http://www.w3.org/2000/svg"
   xmlns:svg="http://www.w3.org/2000/svg"
   xmlns:rdf="http://www.w3.org/1999/02/22-rdf-syntax-ns#"
   xmlns:cc="http://creativecommons.org/ns#"
   xmlns:dc="http://purl.org/dc/elements/1.1/">
  <sodipodi:namedview
     id="namedview834"
     pagecolor="#ffffff"
     bordercolor="#666666"
     borderopacity="1.0"
     inkscape:pageshadow="2"
     inkscape:pageopacity="0.0"
     inkscape:pagecheckerboard="0"
     showgrid="false"
     inkscape:zoom="22.46875"
     inkscape:cx="13.79694"
     inkscape:cy="16.534075"
     inkscape:window-width="1312"
     inkscape:window-height="969"
     inkscape:window-x="72"
     inkscape:window-y="25"
     inkscape:window-maximized="0"
     inkscape:current-layer="icon" />
  <defs
     id="defs826">
    <style
       id="style824">.cls-1{fill:none;}</style>
  </defs>
  <title
     id="title828">tools</title>
  <path
     d="M12.1,2A9.8,9.8,0,0,0,6.7,3.6L13.1,10a2.1,2.1,0,0,1,.2,3,2.1,2.1,0,0,1-3-.2L3.7,6.4A9.84,9.84,0,0,0,2,12.1,10.14,10.14,0,0,0,12.1,22.2a10.9,10.9,0,0,0,2.6-.3l6.7,6.7a5,5,0,0,0,7.1-7.1l-6.7-6.7a10.9,10.9,0,0,0,.3-2.6A10,10,0,0,0,12.1,2Zm8,10.1a7.61,7.61,0,0,1-.3,2.1l-.3,1.1.8.8L27,22.8a2.88,2.88,0,0,1,.9,2.1A2.72,2.72,0,0,1,27,27a2.9,2.9,0,0,1-4.2,0l-6.7-6.7-.8-.8-1.1.3a7.61,7.61,0,0,1-2.1.3,8.27,8.27,0,0,1-5.7-2.3A7.63,7.63,0,0,1,4,12.1a8.33,8.33,0,0,1,.3-2.2l4.4,4.4a4.14,4.14,0,0,0,5.9.2,4.14,4.14,0,0,0-.2-5.9L10,4.2a6.45,6.45,0,0,1,2-.3,8.27,8.27,0,0,1,5.7,2.3A8.49,8.49,0,0,1,20.1,12.1Z"
     id="path830"
     style="stroke:#c5c5c5;stroke-opacity:1;fill:#c5c5c5;fill-opacity:1" />
  <rect
     id="_Transparent_Rectangle_"
     data-name="&lt;Transparent Rectangle&gt;"
     class="cls-1"
     width="32"
     height="32" />
  <metadata
     id="metadata916">
    <rdf:RDF>
      <cc:Work
         rdf:about="">
        <dc:title>tools</dc:title>
      </cc:Work>
    </rdf:RDF>
  </metadata>
</svg>
