<?xml version="1.0" encoding="UTF-8" standalone="no"?>
<!-- Licensed to the Apache Software Foundation (ASF) under one or more
contributor license agreements.  See the NOTICE file distributed with
this work for additional information regarding copyright ownership.
The ASF licenses this file to You under the Apache License, Version 2.0
(the "License"); you may not use this file except in compliance with
the License.  You may obtain a copy of the License at

     http://www.apache.org/licenses/LICENSE-2.0

Unless required by applicable law or agreed to in writing, software
distributed under the License is distributed on an "AS IS" BASIS,
WITHOUT WARRANTIES OR CONDITIONS OF ANY KIND, either express or implied.
See the License for the specific language governing permissions and
limitations under the License. -->
<svg
   width="32px"
   height="32px"
   viewBox="0 0 32 32"
   id="icon"
   version="1.1"
   sodipodi:docname="rocket-svgrepo-com.svg"
   inkscape:version="1.1.2 (b8e25be8, 2022-02-05)"
   xmlns:inkscape="http://www.inkscape.org/namespaces/inkscape"
   xmlns:sodipodi="http://sodipodi.sourceforge.net/DTD/sodipodi-0.dtd"
   xmlns="http://www.w3.org/2000/svg"
   xmlns:svg="http://www.w3.org/2000/svg"
   xmlns:rdf="http://www.w3.org/1999/02/22-rdf-syntax-ns#"
   xmlns:cc="http://creativecommons.org/ns#"
   xmlns:dc="http://purl.org/dc/elements/1.1/">
  <sodipodi:namedview
     id="namedview836"
     pagecolor="#ffffff"
     bordercolor="#666666"
     borderopacity="1.0"
     inkscape:pageshadow="2"
     inkscape:pageopacity="0.0"
     inkscape:pagecheckerboard="0"
     showgrid="false"
     inkscape:zoom="22.46875"
     inkscape:cx="0.89012517"
     inkscape:cy="16.534075"
     inkscape:window-width="2049"
     inkscape:window-height="969"
     inkscape:window-x="78"
     inkscape:window-y="25"
     inkscape:window-maximized="0"
     inkscape:current-layer="icon" />
  <defs
     id="defs826">
    <style
       id="style824">.cls-1{fill:none;}</style>
  </defs>
  <title
     id="title828">rocket</title>
  <rect
     x="6.34"
     y="19"
     width="11.31"
     height="2"
     transform="translate(-10.63 14.34) rotate(-45)"
     id="rect830"
     style="fill:#c5c5c5;fill-opacity:1" />
  <path
     d="M17,30a1,1,0,0,1-.37-.07,1,1,0,0,1-.62-.79l-1-7,2-.28.75,5.27L21,24.52V17a1,1,0,0,1,.29-.71l4.07-4.07A8.94,8.94,0,0,0,28,5.86V4H26.14a8.94,8.94,0,0,0-6.36,2.64l-4.07,4.07A1,1,0,0,1,15,11H7.48L4.87,14.26l5.27.75-.28,2-7-1a1,1,0,0,1-.79-.62,1,1,0,0,1,.15-1l4-5A1,1,0,0,1,7,9h7.59l3.77-3.78A10.92,10.92,0,0,1,26.14,2H28a2,2,0,0,1,2,2V5.86a10.92,10.92,0,0,1-3.22,7.78L23,17.41V25a1,1,0,0,1-.38.78l-5,4A1,1,0,0,1,17,30Z"
     id="path832"
     style="fill:#c5c5c5;fill-opacity:1" />
  <rect
     id="_Transparent_Rectangle_"
     data-name="&lt;Transparent Rectangle&gt;"
     class="cls-1"
     width="32"
     height="32" />
  <metadata
     id="metadata918">
    <rdf:RDF>
      <cc:Work
         rdf:about="">
        <dc:title>rocket</dc:title>
      </cc:Work>
    </rdf:RDF>
  </metadata>
</svg>
