<?xml version="1.0" encoding="UTF-8" standalone="no"?>
<svg
   width="32px"
   height="32px"
   viewBox="0 0 32 32"
   id="icon"
   version="1.1"
   sodipodi:docname="wand.svg"
   inkscape:version="1.1.2 (b8e25be8, 2022-02-05)"
   xmlns:inkscape="http://www.inkscape.org/namespaces/inkscape"
   xmlns:sodipodi="http://sodipodi.sourceforge.net/DTD/sodipodi-0.dtd"
   xmlns="http://www.w3.org/2000/svg"
   xmlns:svg="http://www.w3.org/2000/svg"
   xmlns:rdf="http://www.w3.org/1999/02/22-rdf-syntax-ns#"
   xmlns:cc="http://creativecommons.org/ns#"
   xmlns:dc="http://purl.org/dc/elements/1.1/">
  <sodipodi:namedview
     id="namedview840"
     pagecolor="#ffffff"
     bordercolor="#666666"
     borderopacity="1.0"
     inkscape:pageshadow="2"
     inkscape:pageopacity="0.0"
     inkscape:pagecheckerboard="0"
     showgrid="false"
     inkscape:zoom="22.46875"
     inkscape:cx="9.8581363"
     inkscape:cy="16.534075"
     inkscape:window-width="2077"
     inkscape:window-height="969"
     inkscape:window-x="74"
     inkscape:window-y="25"
     inkscape:window-maximized="0"
     inkscape:current-layer="icon" />
  <defs
     id="defs826">
    <style
       id="style824">.cls-1{fill:none;}</style>
  </defs>
  <title
     id="title828">magic-wand</title>
  <path
     d="M29.4141,24,12,6.5859a2.0476,2.0476,0,0,0-2.8281,0l-2.586,2.586a2.0021,2.0021,0,0,0,0,2.8281L23.999,29.4141a2.0024,2.0024,0,0,0,2.8281,0l2.587-2.5865a1.9993,1.9993,0,0,0,0-2.8281ZM8,10.5859,10.5859,8l5,5-2.5866,2.5869-5-5ZM25.4131,28l-11-10.999L17,14.4141l11,11Z"
     id="path830"
     style="fill:#c5c5c5;fill-opacity:1" />
  <rect
     x="2.5858"
     y="14.5858"
     width="2.8284"
     height="2.8284"
     transform="translate(-10.1421 7.5147) rotate(-45)"
     id="rect832"
     style="fill:#c5c5c5;fill-opacity:1" />
  <rect
     x="14.5858"
     y="2.5858"
     width="2.8284"
     height="2.8284"
     transform="translate(1.8579 12.4853) rotate(-45)"
     id="rect834"
     style="fill:#c5c5c5;fill-opacity:1" />
  <rect
     x="2.5858"
     y="2.5858"
     width="2.8284"
     height="2.8284"
     transform="translate(-1.6569 4) rotate(-45)"
     id="rect836"
     style="fill:#c5c5c5;fill-opacity:1" />
  <rect
     id="_Transparent_Rectangle_"
     data-name="&lt;Transparent Rectangle&gt;"
     class="cls-1"
     width="32"
     height="32" />
  <metadata
     id="metadata922">
    <rdf:RDF>
      <cc:Work
         rdf:about="">
        <dc:title>magic-wand</dc:title>
      </cc:Work>
    </rdf:RDF>
  </metadata>
</svg>
