<?xml version="1.0" encoding="UTF-8" standalone="no"?>
<svg
   class="h-10 mt-0.5 w-auto"
   width="36.441799"
   height="36"
   viewBox="0 0 36.441799 36"
   fill="none"
   version="1.1"
   id="svg37"
   xmlns="http://www.w3.org/2000/svg">
  <defs
     id="defs22">
    <linearGradient
       id="gradient1"
       x1="33.0317"
       y1="3.3661001"
       x2="4.5736399"
       y2="32.176102"
       gradientUnits="userSpaceOnUse">
      <stop
         stop-color="#2DCCFD"
         id="stop1" />
      <stop
         offset="100%"
         stop-color="#AD20E2"
         id="stop2" />
    </linearGradient>
    <linearGradient
       id="gradient2"
       x1="33.0317"
       y1="32.631302"
       x2="4.5710001"
       y2="3.82126"
       gradientUnits="userSpaceOnUse">
      <stop
         stop-color="#A829E2"
         id="stop3" />
      <stop
         offset="5%"
         stop-color="#A829E2"
         stop-opacity="84%"
         id="stop4" />
      <stop
         offset="11%"
         stop-color="#A829E2"
         stop-opacity="67%"
         id="stop5" />
      <stop
         offset="18%"
         stop-color="#A829E2"
         stop-opacity="51%"
         id="stop6" />
      <stop
         offset="25%"
         stop-color="#A829E2"
         stop-opacity="38%"
         id="stop7" />
      <stop
         offset="33%"
         stop-color="#A829E2"
         stop-opacity="28%"
         id="stop8" />
      <stop
         offset="43%"
         stop-color="#A829E2"
         stop-opacity="20%"
         id="stop9" />
      <stop
         offset="54%"
         stop-color="#A829E2"
         stop-opacity="14%"
         id="stop10" />
      <stop
         offset="68%"
         stop-color="#A829E2"
         stop-opacity="11%"
         id="stop11" />
      <stop
         offset="100%"
         stop-color="#A829E2"
         stop-opacity="10%"
         id="stop12" />
    </linearGradient>
    <linearGradient
       id="gradient3"
       x1="3.4100499"
       y1="32.631302"
       x2="31.8682"
       y2="3.82129"
       gradientUnits="userSpaceOnUse">
      <stop
         stop-color="#E50E99"
         id="stop13" />
      <stop
         offset="100%"
         stop-color="#A829E2"
         stop-opacity="10%"
         id="stop14" />
    </linearGradient>
    <linearGradient
       id="gradient4"
       x1="33.0317"
       y1="3.36871"
       x2="4.5709701"
       y2="32.176102"
       gradientUnits="userSpaceOnUse">
      <stop
         stop-color="#21D4FD"
         id="stop15" />
      <stop
         offset="3%"
         stop-color="#27CDFC"
         stop-opacity="96%"
         id="stop16" />
      <stop
         offset="23%"
         stop-color="#4E9CF4"
         stop-opacity="70%"
         id="stop17" />
      <stop
         offset="43%"
         stop-color="#6E73EE"
         stop-opacity="49%"
         id="stop18" />
      <stop
         offset="61%"
         stop-color="#8753E9"
         stop-opacity="32%"
         id="stop19" />
      <stop
         offset="77%"
         stop-color="#993CE5"
         stop-opacity="20%"
         id="stop20" />
      <stop
         offset="90%"
         stop-color="#A42EE3"
         stop-opacity="13%"
         id="stop21" />
      <stop
         offset="100%"
         stop-color="#A829E2"
         stop-opacity="10%"
         id="stop22" />
    </linearGradient>
  </defs>
  <path
     d="M 27.8228,0 H 8.61905 C 3.85888,0 0,3.8121 0,8.51456 V 27.4854 C 0,32.1879 3.85888,36 8.61905,36 H 27.8228 c 4.7601,0 8.619,-3.8121 8.619,-8.5146 V 8.51456 C 36.4418,3.8121 32.5829,0 27.8228,0 Z"
     fill="url(#gradient1)"
     id="path30"
     style="fill:url(#gradient1)" />
  <path
     d="M 27.8228,0 H 8.61905 C 3.85888,0 0,3.8121 0,8.51456 V 27.4854 C 0,32.1879 3.85888,36 8.61905,36 H 27.8228 c 4.7601,0 8.619,-3.8121 8.619,-8.5146 V 8.51456 C 36.4418,3.8121 32.5829,0 27.8228,0 Z"
     fill="url(#gradient2)"
     id="path31"
     style="fill:url(#gradient2)" />
  <path
     d="M 27.8228,0 H 8.61905 C 3.85888,0 0,3.8121 0,8.51456 V 27.4854 C 0,32.1879 3.85888,36 8.61905,36 H 27.8228 c 4.7601,0 8.619,-3.8121 8.619,-8.5146 V 8.51456 C 36.4418,3.8121 32.5829,0 27.8228,0 Z"
     fill="url(#gradient3)"
     id="path32"
     style="fill:url(#gradient3)" />
  <path
     d="M 27.8228,0 H 8.61905 C 3.85888,0 0,3.8121 0,8.51456 V 27.4854 C 0,32.1879 3.85888,36 8.61905,36 H 27.8228 c 4.7601,0 8.619,-3.8121 8.619,-8.5146 V 8.51456 C 36.4418,3.8121 32.5829,0 27.8228,0 Z"
     fill="url(#gradient4)"
     id="path33"
     style="fill:url(#gradient4)" />
  <path
     d="m 11.7645,14.1988 -1.0846,1.4766 8.4709,6.0736 0.0582,0.0418 1.0846,-1.4766 -8.4709,-6.0736 z"
     fill="#ffffff"
     id="path34" />
  <path
     d="m 17.2989,14.2406 -0.0582,-0.0418 -1.0846,1.4766 8.4709,6.0736 0.0582,0.0418 1.0846,-1.4766 z"
     fill="#ffffff"
     id="path35" />
  <path
     d="m 18.2275,6.64075 c -4.5926,0 -8.32802,2.81989 -8.32802,6.28535 v 0.0705 h 1.85182 v -0.0705 c 0,-2.4593 2.9101,-4.46118 6.4815,-4.46118 3.5714,0 6.4815,2.00188 6.4815,4.46118 v 0.0705 h 1.8518 V 12.9261 C 26.5556,9.46064 22.8201,6.64075 18.2275,6.64075 Z"
     fill="#ffffff"
     id="path36" />
  <path
     d="m 24.6958,23.0714 c 0,2.4592 -2.9101,4.4611 -6.4842,4.4611 -3.574,0 -6.4815,-2.0019 -6.4815,-4.4611 V 23.0008 H 9.8783 v 0.0706 c 0,3.4654 3.7354,6.2853 8.328,6.2853 4.5926,0 8.3281,-2.8199 8.3281,-6.2853 v -0.0706 h -1.8519 z"
     fill="#ffffff"
     id="path37" />
</svg>
