<?xml version="1.0" encoding="UTF-8" standalone="no"?>
<!-- Uploaded to: SVG Repo, www.svgrepo.com, Generator: SVG Repo Mixer Tools -->

<svg
   width="800px"
   height="800px"
   viewBox="0 0 64 64"
   version="1.1"
   id="svg19"
   xmlns="http://www.w3.org/2000/svg">
  <defs
     id="defs1">
    <style
       id="style1">.cls-1{fill:#d8d8fc;}.cls-2{fill:#fdbf00;}.cls-3{fill:#2c3b73;}.cls-4{fill:#4bb9ec;}.cls-5{fill:#f03800;}.cls-6{fill:#f2f2fc;}</style>
  </defs>
  <title
     id="title1" />
  <g
     id="time">
    <rect
       style="font-variation-settings:'wght' 500;fill:#92c5f9;fill-opacity:1;stroke:none;stroke-width:0.08"
       id="rect19"
       width="55.589474"
       height="47.53933"
       x="4.3514266"
       y="12.401565" />
    <circle
       class="cls-1"
       cx="46.5"
       cy="45.5"
       r="4.051"
       id="circle1" />
    <path
       class="cls-2"
       d="M38.086,46.555a1,1,0,0,1,.694.734,7.925,7.925,0,0,0,1,2.4A1,1,0,0,1,39.8,50.7l-.529.966a9.516,9.516,0,0,0,1.056,1.056L41.3,52.2a1,1,0,0,1,1.01.028,7.9,7.9,0,0,0,2.4,1,1,1,0,0,1,.734.694l.309,1.057a9.544,9.544,0,0,0,1.493,0l.309-1.057a1,1,0,0,1,.734-.694,7.9,7.9,0,0,0,2.4-1A1,1,0,0,1,51.7,52.2l.965.529a9.557,9.557,0,0,0,1.056-1.056L53.2,50.7a1,1,0,0,1,.028-1.009,7.926,7.926,0,0,0,1-2.4,1,1,0,0,1,.694-.734l1.057-.308a9.509,9.509,0,0,0,0-1.494l-1.057-.308a1,1,0,0,1-.694-.734,7.927,7.927,0,0,0-1-2.405A1,1,0,0,1,53.2,40.3l.529-.966a9.511,9.511,0,0,0-1.056-1.056L51.7,38.8a1,1,0,0,1-1.01-.028,7.9,7.9,0,0,0-2.4-1,1,1,0,0,1-.734-.694l-.309-1.057h0a9.545,9.545,0,0,0-1.493,0l-.308,1.057a1,1,0,0,1-.734.694,7.9,7.9,0,0,0-2.4,1,1,1,0,0,1-1.01.028l-.966-.529a9.563,9.563,0,0,0-1.056,1.056l.529.966a1,1,0,0,1-.028,1.009,7.926,7.926,0,0,0-1,2.405,1,1,0,0,1-.694.734l-1.057.308a9.509,9.509,0,0,0,0,1.494ZM46.5,39.449A6.051,6.051,0,1,1,40.45,45.5,6.054,6.054,0,0,1,46.5,39.449Z"
       id="path2"
       style="fill:#f69923;fill-opacity:1" />
    <path
       d="M35.83,47.98l1.153.337a9.927,9.927,0,0,0,.8,1.921L37.2,51.291a1,1,0,0,0,.075,1.078,11.483,11.483,0,0,0,2.355,2.354,1,1,0,0,0,1.078.075l1.053-.577a9.89,9.89,0,0,0,1.921.8l.336,1.153a1,1,0,0,0,.815.709,11.54,11.54,0,0,0,3.33,0,1,1,0,0,0,.815-.709l.337-1.153a9.906,9.906,0,0,0,1.921-.8l1.053.577a1,1,0,0,0,1.078-.075,11.481,11.481,0,0,0,2.355-2.354,1,1,0,0,0,.075-1.078l-.577-1.053a9.926,9.926,0,0,0,.8-1.922l1.153-.336a1,1,0,0,0,.709-.815,11.5,11.5,0,0,0,0-3.33,1,1,0,0,0-.709-.815l-1.153-.337a9.925,9.925,0,0,0-.8-1.921l.577-1.053a1,1,0,0,0-.075-1.078,11.483,11.483,0,0,0-2.355-2.354,1,1,0,0,0-1.078-.075l-1.053.577a9.89,9.89,0,0,0-1.921-.8L48.98,34.83a1,1,0,0,0-.815-.709,11.54,11.54,0,0,0-3.33,0,1,1,0,0,0-.815.709l-.337,1.153a9.906,9.906,0,0,0-1.921.8L40.709,36.2a1,1,0,0,0-1.078.075,11.484,11.484,0,0,0-2.355,2.354,1,1,0,0,0-.075,1.078l.577,1.053a9.931,9.931,0,0,0-.8,1.922l-1.153.336a1,1,0,0,0-.709.815,11.5,11.5,0,0,0,0,3.33A1,1,0,0,0,35.83,47.98Zm1.2-3.227,1.057-.308a1,1,0,0,0,.694-.734,7.926,7.926,0,0,1,1-2.405A1,1,0,0,0,39.8,40.3l-.529-.966a9.563,9.563,0,0,1,1.056-1.056l.966.529a1,1,0,0,0,1.01-.028,7.9,7.9,0,0,1,2.4-1,1,1,0,0,0,.734-.694l.308-1.057a9.545,9.545,0,0,1,1.493,0h0l.309,1.057a1,1,0,0,0,.734.694,7.9,7.9,0,0,1,2.4,1,1,1,0,0,0,1.01.028l.965-.529a9.511,9.511,0,0,1,1.056,1.056L53.2,40.3a1,1,0,0,0,.028,1.009,7.927,7.927,0,0,1,1,2.405,1,1,0,0,0,.694.734l1.057.308a9.509,9.509,0,0,1,0,1.494l-1.057.308a1,1,0,0,0-.694.734,7.926,7.926,0,0,1-1,2.4A1,1,0,0,0,53.2,50.7l.529.966a9.557,9.557,0,0,1-1.056,1.056L51.7,52.2a1,1,0,0,0-1.01.028,7.9,7.9,0,0,1-2.4,1,1,1,0,0,0-.734.694l-.309,1.057a9.544,9.544,0,0,1-1.493,0l-.309-1.057a1,1,0,0,0-.734-.694,7.9,7.9,0,0,1-2.4-1A1,1,0,0,0,41.3,52.2l-.965.529a9.516,9.516,0,0,1-1.056-1.056L39.8,50.7a1,1,0,0,0-.028-1.009,7.925,7.925,0,0,1-1-2.4,1,1,0,0,0-.694-.734l-1.057-.308A9.509,9.509,0,0,1,37.029,44.753Z"
       id="path3" />
    <path
       d="M46.5,51.551A6.051,6.051,0,1,0,40.45,45.5,6.054,6.054,0,0,0,46.5,51.551Zm0-10.1A4.051,4.051,0,1,1,42.45,45.5,4.053,4.053,0,0,1,46.5,41.449Z"
       id="path4" />
    <path
       d="M60,3H4A1,1,0,0,0,3,4V60a1,1,0,0,0,1,1H60a1,1,0,0,0,1-1V4A1,1,0,0,0,60,3ZM59,59H5V13H59Zm0-48H5V5H59Z"
       id="path6"
       style="fill:#92c5f9;fill-opacity:1" />
    <rect
       class="cls-4"
       height="6"
       width="2"
       x="9"
       y="49"
       id="rect8"
       style="fill:#63993d;fill-opacity:1" />
    <path
       d="M8,57h4a1,1,0,0,0,1-1V48a1,1,0,0,0-1-1H8a1,1,0,0,0-1,1v8A1,1,0,0,0,8,57Zm1-8h2v6H9Z"
       id="path9" />
    <rect
       class="cls-2"
       height="8"
       width="2"
       x="17"
       y="47"
       id="rect9"
       style="fill:#f69923;fill-opacity:1" />
    <path
       d="M20,45H16a1,1,0,0,0-1,1V56a1,1,0,0,0,1,1h4a1,1,0,0,0,1-1V46A1,1,0,0,0,20,45ZM19,55H17V47h2Z"
       id="path10" />
    <rect
       class="cls-5"
       height="10"
       width="2"
       x="25"
       y="45"
       id="rect10"
       style="fill:#ee0000;fill-opacity:1" />
    <path
       d="M28,43H24a1,1,0,0,0-1,1V56a1,1,0,0,0,1,1h4a1,1,0,0,0,1-1V44A1,1,0,0,0,28,43ZM27,55H25V45h2Z"
       id="path11" />
    <path
       d="M36,17H56a1,1,0,0,0,0-2H36a1,1,0,0,0,0,2Z"
       id="path12" />
    <path
       d="M36,21H56a1,1,0,0,0,0-2H36a1,1,0,0,0,0,2Z"
       id="path13" />
    <path
       d="M36,25H56a1,1,0,0,0,0-2H36a1,1,0,0,0,0,2Z"
       id="path14" />
    <path
       d="M36,29H56a1,1,0,0,0,0-2H36a1,1,0,0,0,0,2Z"
       id="path15" />
    <path
       class="cls-6"
       d="M8,9h4a1,1,0,0,0,0-2H8A1,1,0,0,0,8,9Z"
       id="path16"
       style="fill:#92c5f9;fill-opacity:1" />
    <path
       class="cls-6"
       d="M16,9h4a1,1,0,0,0,0-2H16a1,1,0,0,0,0,2Z"
       id="path17"
       style="fill:#92c5f9;fill-opacity:1" />
    <path
       class="cls-6"
       d="M24,9h4a1,1,0,0,0,0-2H24a1,1,0,0,0,0,2Z"
       id="path18"
       style="fill:#92c5f9;fill-opacity:1" />
    <path
       class="cls-5"
       d="m 18.672967,37.910254 a 8.8448965,8.8448965 0 0 0 8.731237,-7.468659 h -8.731237 a 1.369391,1.369391 0 0 1 -1.369391,-1.369391 v -8.731237 a 8.8380495,8.8380495 0 0 0 1.369391,17.569287 z"
       id="path9-7"
       style="fill:#f69923;stroke-width:1.36939;fill-opacity:1" />
    <path
       d="M 18.672967,40.649036 A 11.58094,11.58094 0 0 0 30.248429,29.073573 1.369391,1.369391 0 0 0 28.879038,27.704182 h -8.83668 v -8.838049 a 1.369391,1.369391 0 0 0 -1.369391,-1.369391 11.576147,11.576147 0 1 0 0,23.152294 z M 17.303576,20.340967 v 8.731237 a 1.369391,1.369391 0 0 0 1.369391,1.369391 h 8.731237 A 8.8380495,8.8380495 0 1 1 17.303576,20.340967 Z"
       id="path10-9"
       style="stroke-width:1.36939" />
    <path
       class="cls-6"
       d="m 24.702947,15.679009 v 7.356368 h 7.361846 a 8.8517434,8.8517434 0 0 0 -7.361846,-7.356368 z"
       id="path11-0"
       style="fill:#4bb9ec;stroke-width:1.36939" />
    <path
       d="m 23.334925,12.834784 a 1.369391,1.369391 0 0 0 -1.369391,1.369391 v 10.200593 a 1.369391,1.369391 0 0 0 1.369391,1.369391 H 33.540996 A 1.369391,1.369391 0 0 0 34.910387,24.404768 11.58094,11.58094 0 0 0 23.334925,12.834784 Z m 1.369391,10.206071 v -7.361846 a 8.8517434,8.8517434 0 0 1 7.361846,7.356368 z"
       id="path12-2"
       style="stroke-width:1.36939" />
  </g>
</svg>
