<?xml version="1.0" encoding="UTF-8" standalone="no"?>
<!-- Uploaded to: SVG Repo, www.svgrepo.com, Generator: SVG Repo Mixer Tools -->

<svg
   width="700"
   height="346.11191"
   viewBox="0 0 28 13.844476"
   version="1.1"
   id="svg5"
   xmlns="http://www.w3.org/2000/svg">
  <defs
     id="defs5" />
  <title
     id="title1">file_type_groovy</title>
  <path
     d="m 5.4529999,13.777476 c 0,-0.037 0.494,-0.849 1.1,-1.805 a 6.891,6.891 0 0 0 0.947,-1.789 1.454,1.454 0 0 0 -0.6,0.111 c -0.764,0.266 -0.92,0.2 -1.491,-0.6700002 -0.617,-0.937 -0.639,-1.034 -0.317,-1.389 0.21,-0.232 0.2,-0.286 -0.147,-0.631 a 1.422,1.422 0 0 1 -0.377,-0.516 17.664,17.664 0 0 0 -3.64699998,-1.5 A 4.173,4.173 0 0 1 0,5.1894758 a 21.111,21.111 0 0 1 2.3779999,-0.019 l 2.378,0.048 0.232,-0.366 c 0.981,-1.547 2.463,-2.945 3.122,-2.945 a 1.333,1.333 0 0 1 0.619,0.291 c 0.331,0.26 0.376,0.422 0.435,1.545 a 5.759,5.759 0 0 0 0.165,1.354 c 0.055,0.055 0.228,-0.017 0.3850001,-0.159 a 0.723,0.723 0 0 1 0.71,-0.165 0.567,0.567 0 0 0 0.646,-0.17 23.472,23.472 0 0 0 1.455,-2.332 9.3,9.3 0 0 1 0.534,-0.913 L 13.81,0.15847581 c 0.213,-0.34 0.246,-0.3 1.524,1.84199999 1.32,2.212 2.03,3.028 2.385,2.741 a 3.154,3.154 0 0 1 1.914,-0.017 c 0.207,0.111 0.338,0.109 0.453,0 a 0.694,0.694 0 0 1 0.953,0.069 c 0.117,0.209 0.147,0.209 0.32,0 a 1.037,1.037 0 0 1 0.692,-0.23 c 0.389,0 0.538,0.081 0.666,0.363 l 0.165,0.363 2.558,-0.091 a 23.245,23.245 0 0 1 2.56,-0.022 24.182,24.182 0 0 1 -2.321,0.934 c -1.277,0.475 -2.342,0.877 -2.368,0.895 a 4.39,4.39 0 0 0 0.128,0.923 2.837,2.837 0 0 1 -1.565,3.5610002 1.262,1.262 0 0 0 -0.506,0.24 11.264,11.264 0 0 0 0.66,1.094 c 0.363,0.561 0.606,1.021 0.539,1.021 -0.109,0 -2.757,-1.023 -6.876,-2.657 a 14.6,14.6 0 0 0 -1.643,-0.586 c -0.171,0 -1.649,0.56 -5.9840001,2.268 -2.514,0.99 -2.612,1.025 -2.612,0.907 z m 5.1580001,-2.337 c 1.337,-0.52 2.664,-1.027 2.947,-1.128 0.488,-0.174 0.651,-0.13 3.021,0.806 1.378,0.545 2.737,1.075 3.021,1.179 0.284,0.104 0.868,0.329 1.3,0.5 0.491,0.2 0.742,0.243 0.674,0.127 -0.77,-1.3 -0.793,-1.324 -1.327,-1.224 -0.644,0.121 -1.043,0 -1.249,-0.387 -0.133,-0.249 -0.093,-0.371 0.24,-0.717 0.495,-0.516 0.417,-0.9910002 -0.221,-1.3500002 a 1.992,1.992 0 0 1 -0.686,-0.756 l -0.241,-0.506 -0.517,0.351 a 1.866,1.866 0 0 1 -2.059,0.059 l -0.477,-0.291 -0.554,0.377 a 1.831,1.831 0 0 1 -1.844,0.141 c -0.179,-0.079 -0.258,-0.048 -0.258,0.1 0,0.117 -0.169,0.29 -0.375,0.384 a 1.4,1.4 0 0 1 -1.633,-0.2 l -0.373,-0.377 -0.3,0.383 a 4.042,4.042 0 0 1 -0.8530001,0.731 5.944,5.944 0 0 0 -1.455,1.8110002 c -0.5,0.8 -0.9,1.5 -0.9,1.554 a 2.252,2.252 0 0 0 0.847,-0.266 c 0.466,-0.2 1.942,-0.782 3.2790001,-1.3 z m 11.343,-0.559 c 1.015,-0.57 1.25,-1.6250002 0.8,-3.6000002 -0.375,-1.646 -0.562,-2.185 -0.784,-2.257 -0.154,-0.05 -0.177,0 -0.091,0.21 0.562,1.334 0.593,2 0.1,2.192 -0.337,0.129 -0.695,-0.355 -0.976,-1.322 -0.218,-0.749 -0.445,-1.087 -0.617,-0.915 -0.041,0.041 0.031,0.279 0.16,0.529 a 6.987,6.987 0 0 1 0.394,1.672 5.719,5.719 0 0 0 0.375,1.558 c 0.309,0.487 0.8,0.37 1.118,-0.267 0.318,-0.637 0.35,-0.21 0.044,0.521 -0.317,0.7600002 -1.26,0.9870002 -2.352,0.568 -0.175,-0.067 -0.234,0 -0.234,0.2750002 a 1.453,1.453 0 0 1 -0.3,0.743 l -0.3,0.378 0.408,0.069 a 3.856,3.856 0 0 0 2.255,-0.354 z M 7.3459999,9.6224758 c 2.118,-0.609 2.5000003,-1.319 1.793,-3.365 a 5.764,5.764 0 0 1 -0.3,-1.135 c 0,-0.509 -0.256,-0.274 -0.448,0.411 -0.254,0.906 -1.016,1.676 -1.657,1.673 -0.557,0 -0.738,-0.1 -0.968,-0.541 -0.413,-0.784 0.037,-1.987 1.184,-3.167 0.84,-0.865 1.3,-0.943 1.3,-0.222 0,1.125 -0.776,2.781 -1.184,2.529 -0.2,-0.123 -0.167,-0.669 0.065,-1.088 0.2,-0.356 0.157,-0.9 -0.066,-0.9 -0.259,0 -0.773,0.944 -0.841,1.546 -0.06,0.532 -0.022,0.661 0.231,0.8 0.888,0.475 2.052,-0.976 2.111,-2.632 0.031,-0.87 -0.138,-1.114 -0.674,-0.98 -0.781,0.2 -2.883,2.909 -2.883,3.72 a 1.173,1.173 0 0 0 0.88,1.232 2.266,2.266 0 0 0 2.529,-1.251 l 0.275,-0.442 v 0.6 c 0,0.87 -0.567,1.328 -2.357,1.9 -0.446,0.143 -0.829,0.276 -0.852,0.295 a 3.723,3.723 0 0 0 0.892,1.2530001 8.436,8.436 0 0 0 0.969,-0.2390001 z M 20.11,8.5424758 c 0.213,-0.235 0.25,-0.49 0.2,-1.393 -0.05,-0.982 -0.1,-1.155 -0.486,-1.554 -0.691,-0.721 -1.544,-0.537 -1.045,0.225 0.265,0.405 0.589,0.336 0.475,-0.1 -0.091,-0.348 0.079,-0.358 0.375,-0.02 0.556,0.633 0.416,1.511 -0.242,1.511 -0.45,0 -0.59,-0.193 -0.883,-1.216 a 2.062,2.062 0 0 0 -0.362,-0.847 0.208,0.208 0 0 0 -0.179,0.355 7.764,7.764 0 0 1 0.457,1.419 c 0.441,1.734 1.057,2.327 1.69,1.628 z m -8.38,0.028 c 0.091,-0.061 0.132,-0.349 0.095,-0.658 -0.06,-0.5 -0.094,-0.535 -0.364,-0.39 -0.387,0.207 -0.8,-0.185 -0.944,-0.891 -0.107,-0.535 -0.14,-0.525 0.64,-0.205 0.1,0.04 0.346,-0.1 0.553,-0.3 0.377,-0.377 0.5,-0.83 0.228,-0.83 a 0.148,0.148 0 0 0 -0.147,0.147 c 0,0.212 -0.4,0.182 -0.494,-0.037 -0.053,-0.128 -0.166,-0.082 -0.367,0.147 a 1,1 0 0 1 -0.434,0.332 c -0.079,0 -0.185,-0.149 -0.237,-0.332 -0.09,-0.32 -0.1,-0.322 -0.2999997,-0.056 -0.1780002,0.233 -0.1800002,0.307 -0.01,0.477 a 5.055,5.055 0 0 1 0.5209997,1.874 0.892,0.892 0 0 0 1.267,0.723 z m 2.688,-0.769 a 1.925,1.925 0 0 0 0.416,-2.106 0.949,0.949 0 0 0 -1.222,-0.631 c -0.429,0.108 -1.082,1.358 -1.084,2.075 0,1.118 1.06,1.491 1.89,0.661 z m -1.007,-0.879 a 1.124,1.124 0 0 1 -0.29,-0.7 c 0,-0.368 0.022,-0.382 0.2,-0.147 0.22,0.29 0.611,0.34 0.761,0.1 a 0.283,0.283 0 0 0 -0.065,-0.324 c -0.232,-0.232 -0.2,-0.547 0.049,-0.547 0.28,0 0.672,0.571 0.672,0.98 a 1.427,1.427 0 0 1 -0.9,0.936 1.052,1.052 0 0 1 -0.427,-0.298 z m 3.937,0.847 a 1.764,1.764 0 0 0 -0.141,-2.432 1.175,1.175 0 0 0 -1.479,-0.123 3.109,3.109 0 0 0 -0.489,1.926 1.276,1.276 0 0 0 2.109,0.625 z m -1.248,-1.081 a 0.785,0.785 0 0 1 -0.318,-0.774 c 0.008,-0.45 0.031,-0.49 0.135,-0.233 0.153,0.378 0.473,0.52 0.753,0.336 0.174,-0.114 0.166,-0.169 -0.05,-0.334 -0.288,-0.221 -0.344,-0.534 -0.1,-0.534 a 2.37,2.37 0 0 1 1.017,1.112 c 0,0.237 -0.564,0.656 -0.884,0.656 a 1.258,1.258 0 0 1 -0.553,-0.229 z m 8.662,-0.652 1.547,-0.581 -1.658,-0.006 c -1.484,-0.005 -1.658,0.021 -1.656,0.252 a 3,3 0 0 0 0.2,0.918 c 0.011,0 0.716,-0.264 1.567,-0.583 z m -20.2220001,-0.1 0.158,-0.469 -1.398,-0.05 a 5.409,5.409 0 0 0 -1.389,0.044 17.027,17.027 0 0 0 2.447,0.956 c 0.013,-0.009 0.09,-0.226 0.177,-0.484 z m 9.5260001,-1.454 a 2.01,2.01 0 0 1 0.819,0.3 c 0.192,0.173 0.276,0.161 0.573,-0.081 a 1.236,1.236 0 0 1 0.553,-0.283 c 0.113,0 0.2,-0.033 0.2,-0.072 a 41.654,41.654 0 0 0 -2.2,-3.60699999 43.984,43.984 0 0 0 -2.337,3.91799999 c -0.028,0.112 0.06,0.153 0.231,0.108 a 0.5,0.5 0 0 1 0.468,0.158 c 0.17,0.205 0.24,0.189 0.644,-0.151 a 1.013,1.013 0 0 1 1.048,-0.286 z"
     style="fill:#333333"
     id="path1" />
  <path
     d="m 12.5,5.0314758 a 0.5,0.5 0 0 1 -0.115,-0.1 0.511,0.511 0 0 0 -0.49,-0.174 0.335,0.335 0 0 1 -0.15,0.012 c -0.065,-0.013 -0.089,-0.052 -0.07,-0.12 a 9.59,9.59 0 0 1 0.548,-1.016 c 0.711,-1.235 1.666,-2.79200001 1.772,-2.88699999 0.012,-0.011 0.012,-0.011 0.024,0 0.063,0.056 0.432,0.62599999 0.937,1.44399999 0.682,1.107 1.25,2.081 1.25,2.145 0,0.039 -0.06,0.063 -0.186,0.073 a 1.193,1.193 0 0 0 -0.587,0.3 1.243,1.243 0 0 1 -0.226,0.153 0.166,0.166 0 0 1 -0.1,0.024 0.15,0.15 0 0 1 -0.1,-0.021 0.684,0.684 0 0 1 -0.1,-0.071 1.215,1.215 0 0 0 -0.414,-0.208 2.631,2.631 0 0 0 -0.738,-0.139 0.712,0.712 0 0 0 -0.4,0.077 1.932,1.932 0 0 0 -0.416,0.3 c -0.257,0.21 -0.348,0.254 -0.441,0.211 z"
     style="fill:#6398aa"
     id="path2" />
  <path
     d="m 4.2519999,6.3924758 a 22.778,22.778 0 0 1 -2.3,-0.909 c -0.031,-0.019 -0.034,-0.022 -0.025,-0.028 a 5.357,5.357 0 0 1 1.14,-0.042 c 0.23,0.006 1.619,0.052 1.621,0.054 0.002,0.002 -0.3,0.88 -0.321,0.93 -0.01,0.025 -0.03,0.025 -0.115,-0.005 z"
     style="fill:#6398aa"
     id="path3" />
  <path
     d="M 23.177,6.6014758 A 3.659,3.659 0 0 1 23,5.7164758 c 0,-0.079 0.009,-0.111 0.044,-0.143 0.081,-0.075 0.245,-0.1 0.7,-0.114 0.228,-0.006 1.281,-0.007 2.025,0 h 0.521 l -1.255,0.47 c -1.144,0.429 -1.81,0.677 -1.834,0.683 -0.006,0 -0.012,0 -0.018,-0.014 v 0 z"
     style="fill:#6398aa"
     id="path4" />
  <path
     d="m 6.5059999,12.994476 a 8.284,8.284 0 0 1 0.527,-0.929 7.528,7.528 0 0 1 1.827,-2.4190003 4.138,4.138 0 0 0 0.9690002,-0.8859999 L 10,8.5494758 l 0.225,0.221 a 1.325,1.325 0 0 0 1.062,0.5 c 0.526,0 1.1,-0.291 1.1,-0.562 0,-0.061 0.044,-0.124 0.086,-0.124 a 1.609,1.609 0 0 1 0.226,0.069 2.089,2.089 0 0 0 0.666,0.147 1.628,1.628 0 0 0 0.609,-0.073 2.357,2.357 0 0 0 0.711,-0.378 c 0.187,-0.125 0.347,-0.227 0.354,-0.227 0.007,0 0.143,0.078 0.3,0.174 a 4.62,4.62 0 0 0 0.422,0.231 1.854,1.854 0 0 0 1.549,-0.04 5.023,5.023 0 0 0 0.467,-0.283 c 0.168,-0.113 0.307,-0.2 0.31,-0.2 0.003,0 0.066,0.133 0.141,0.289 a 4.224,4.224 0 0 0 0.209,0.39 2.014,2.014 0 0 0 0.642,0.61 0.873,0.873 0 0 1 0.466,0.6160002 c 0.017,0.218 -0.078,0.411 -0.352,0.715 -0.214,0.237 -0.268,0.33 -0.267,0.462 a 0.643,0.643 0 0 0 0.213,0.421 1.163,1.163 0 0 0 1.069,0.2 2.6,2.6 0 0 1 0.316,-0.034 c 0.2,0 0.315,0.1 0.542,0.435 0.157,0.235 0.5,0.81 0.5,0.838 0,0.028 -0.016,0.025 -0.039,0.025 a 2.269,2.269 0 0 1 -0.407,-0.111 c -0.2,-0.071 -2.612,-1 -3.408,-1.317 -2.128,-0.837 -2.828,-1.1 -3.171,-1.209 a 1.538,1.538 0 0 0 -0.827,-0.088 c -0.254,0.066 -3.7259996,1.408 -5.7510001,2.223 a 13.565,13.565 0 0 1 -1.312,0.5 c -0.149,0.041 -0.143,0.04 -0.143,0.015 z"
     style="fill:#6398aa"
     id="path5" />
  <metadata
     id="metadata5">
  </metadata>
</svg>
