<?xml version="1.0" encoding="UTF-8" standalone="no"?>
<svg
   width="66.294701"
   height="56.746601"
   viewBox="0 0 66.294701 56.746601"
   fill="none"
   version="1.1"
   id="svg14"
   xmlns="http://www.w3.org/2000/svg">
  <defs
     id="defs14" />
  <path
     d="m 27.1872,51.3759 c -1.0836,-1.0178 -0.9262,-2.7714 0.4028,-4.4922 0.9848,-1.274 5.0998,-5.4476 8.069,-8.1861 l 1.2008,-1.1057 -1.9111,-4.0967 C 32.807,28.9006 32.818,28.8127 35.6443,28.4978 l 1.556,-0.172 1.739,2.6286 c 0.9555,1.4461 1.8781,2.6287 2.0429,2.6287 0.1647,0 1.8818,-1.3766 3.8111,-3.057 3.3499,-2.9216 3.5586,-3.0497 4.6935,-2.8959 0.6847,0.0951 1.2924,0.0366 1.4352,-0.1355 0.3368,-0.4027 1.3033,0.194 1.3033,0.8054 0,0.2527 -0.4832,0.8897 -1.069,1.4169 -2.4053,2.16 -7.5345,7.2709 -7.5345,7.5052 0,0.1391 1.0324,1.922 2.2992,3.9649 l 2.138,3.4561 c 0.0952,0.1537 0.0769,0.3514 -0.0439,0.4832 l -0.5089,0.3918 c -0.3844,0.4247 -0.6443,0.7578 -0.6956,1.1752 0.0915,0.2562 -0.2929,0.3807 -0.6407,0.5418 -0.8823,0.4101 -1.534,-0.0915 -4.2285,-3.2547 -1.2338,-1.4498 -2.3651,-2.6396 -2.5152,-2.6433 -0.3331,-0.0073 -4.0198,4.0235 -6.8718,7.5125 -2.5152,3.0753 -4.7301,3.1376 -5.3708,2.5335 z"
     fill="#4bb9ec"
     id="path1" />
  <path
     d="M 24.1959,27.458 C 24.1813,27.4361 24.163,27.4141 24.152,27.3958 18.5359,19.0119 14.4648,17.5365 14.6112,17.445 c 2.1345,-1.3729 6.1397,-0.0256 8.6146,2.1747 0.0292,0.0256 0.0585,0.0586 0.0915,0.0879 0.5931,0.5052 0.7285,0.6882 1.4388,1.479 0.1281,0 2.8666,-4.5507 2.8849,-4.58 5.5136,-8.69503 11.2798,-12.37075 14.626,-12.36343 1.5962,0 1.8342,0.55649 1.8342,0.55649 -5.4221,2.83001 -10.0094,7.87494 -14.7468,17.16674 -1.3217,2.6616 -3.5476,6.9561 -3.7087,7.249 -0.2416,0.4393 -0.2819,-0.216 -1.4461,-1.7574 z"
     fill="#4bb9ec"
     id="path2" />
  <path
     d="m 5.84307,27.9084 c 1.50104,-0.3698 2.65428,-0.8933 3.4707,-1.5743 0.81273,-0.681 1.36923,-1.4937 1.67313,-2.4383 0.3039,-0.9445 0.454,-1.9953 0.454,-3.1485 v -8.8671 c 0,-1.728 0.205,-3.1522 0.6114,-4.26883 C 12.4586,6.49475 13.1542,5.671 14.1354,5.14015 15.1166,4.60929 16.4675,4.34203 18.1809,4.34203 V 0 C 16.0099,0 14.183,0.23797 12.7039,0.710248 11.2249,1.18253 10.046,1.90742 9.15635,2.88126 8.26671,3.85511 7.62968,5.08889 7.23794,6.58261 6.84621,8.07633 6.65217,9.84097 6.65217,11.8802 v 7.0951 c 0,2.4237 -0.49058,4.1517 -1.47541,5.1878 C 4.19559,25.1992 2.46756,25.7154 0,25.7154 v 5.3195 c 2.46756,0 4.19193,0.5162 5.17676,1.5523 0.98117,1.0361 1.47541,2.7641 1.47541,5.1878 v 7.0915 c 0,2.0392 0.19404,3.8038 0.58577,5.2975 0.39174,1.4938 1.02877,2.7275 1.91841,3.7014 0.88965,0.9738 2.06855,1.6987 3.54755,2.171 1.4791,0.4723 3.3023,0.7102 5.477,0.7102 V 52.401 c -1.7134,0 -3.0643,-0.271 -4.0455,-0.8091 -0.9812,-0.5382 -1.6768,-1.362 -2.0831,-2.4713 -0.4064,-1.1093 -0.6114,-2.5261 -0.6114,-4.2578 v -8.8671 c 0,-1.1533 -0.1501,-2.2003 -0.454,-3.1485 C 10.683,31.9026 10.1265,31.0898 9.31377,30.4089 8.50101,29.7279 7.34411,29.2044 5.84307,28.8346 5.6527,28.787 5.4367,28.7541 5.23167,28.7138 V 28.0292 C 5.4367,27.9889 5.6527,27.9523 5.84307,27.9084 Z"
     fill="#4bb9ec"
     id="path3" />
  <path
     d="m 60.4516,27.9084 c -1.5011,-0.3698 -2.6543,-0.8933 -3.4707,-1.5743 -0.8128,-0.681 -1.3693,-1.4937 -1.6731,-2.4383 -0.3039,-0.9445 -0.454,-1.9953 -0.454,-3.1485 v -8.8671 c 0,-1.728 -0.205,-3.1522 -0.6114,-4.26883 C 53.836,6.49475 53.1404,5.671 52.1593,5.14015 51.1781,4.60929 49.8272,4.34203 48.1138,4.34203 V 0 c 2.171,0 3.9979,0.23797 5.4769,0.710248 1.4791,0.472282 2.658,1.197172 3.5476,2.171012 0.886,0.97385 1.5267,2.20763 1.9184,3.70135 0.3918,1.49372 0.5858,3.25836 0.5858,5.29759 v 7.0951 c 0,2.4237 0.4906,4.1517 1.4754,5.1878 0.9812,1.0361 2.7092,1.5523 5.1768,1.5523 v 2.5701 0.1757 2.5701 c -2.4676,0 -4.192,0.5162 -5.1768,1.5523 -0.9812,1.036 -1.4754,2.7641 -1.4754,5.1877 v 7.0915 c 0,2.0392 -0.194,3.8039 -0.5858,5.2976 -0.3917,1.4937 -1.0287,2.7275 -1.9184,3.7013 -0.886,0.9739 -2.0685,1.6988 -3.5476,2.171 -1.479,0.4723 -3.3023,0.7103 -5.4769,0.7103 v -4.3457 c 1.7134,0 3.0643,-0.2709 4.0455,-0.8091 0.9811,-0.5382 1.6767,-1.3619 2.0831,-2.4712 0.4064,-1.1093 0.6114,-2.5262 0.6114,-4.2579 V 35.992 c 0,-1.1532 0.1501,-2.2003 0.454,-3.1485 0.3038,-0.9446 0.8603,-1.7573 1.6731,-2.4383 0.8127,-0.6809 1.9696,-1.2045 3.4707,-1.5742 0.1904,-0.0476 0.4064,-0.0806 0.6114,-0.1209 v -0.6846 c -0.205,-0.0403 -0.421,-0.0769 -0.6114,-0.1208 z"
     fill="#4bb9ec"
     id="path4" />
</svg>
