<?xml version="1.0" encoding="UTF-8" standalone="no"?>
<svg
   id="icon"
   width="32"
   height="32"
   viewBox="0 0 32 32"
   version="1.1"
   sodipodi:docname="logout.svg"
   inkscape:version="1.4.3 (0d15f75, 2025-12-25)"
   xmlns:inkscape="http://www.inkscape.org/namespaces/inkscape"
   xmlns:sodipodi="http://sodipodi.sourceforge.net/DTD/sodipodi-0.dtd"
   xmlns="http://www.w3.org/2000/svg"
   xmlns:svg="http://www.w3.org/2000/svg">
  <sodipodi:namedview
     id="namedview1"
     pagecolor="#ffffff"
     bordercolor="#000000"
     borderopacity="0.25"
     inkscape:showpageshadow="2"
     inkscape:pageopacity="0.0"
     inkscape:pagecheckerboard="0"
     inkscape:deskcolor="#d1d1d1"
     inkscape:zoom="9.1923881"
     inkscape:cx="39.21723"
     inkscape:cy="20.070954"
     inkscape:window-width="2560"
     inkscape:window-height="1382"
     inkscape:window-x="0"
     inkscape:window-y="30"
     inkscape:window-maximized="0"
     inkscape:current-layer="icon" />
  <defs
     id="defs1">
    <style
       id="style1">.cls-1{fill:none;}</style>
  </defs>
  <title
     id="title1">logout</title>
  <path
     d="M6,30H18a2.0023,2.0023,0,0,0,2-2V25H18v3H6V4H18V7h2V4a2.0023,2.0023,0,0,0-2-2H6A2.0023,2.0023,0,0,0,4,4V28A2.0023,2.0023,0,0,0,6,30Z"
     id="path1"
     style="fill:#4bb9ec;fill-opacity:1" />
  <polygon
     points="20.586 20.586 24.172 17 10 17 10 15 24.172 15 20.586 11.414 22 10 28 16 22 22 20.586 20.586"
     id="polygon1"
     style="fill:#f69923;fill-opacity:1" />
  <rect
     id="_Transparent_Rectangle_"
     data-name="&lt;Transparent Rectangle&gt;"
     class="cls-1"
     width="32"
     height="32" />
</svg>
