<?xml version="1.0" encoding="UTF-8" standalone="no"?>
<svg
   width="16px"
   height="16px"
   viewBox="0 0 16 16"
   version="1.1"
   id="svg932"
   sodipodi:docname="crd.svg"
   inkscape:version="1.1.2 (b8e25be8, 2022-02-05)"
   xmlns:inkscape="http://www.inkscape.org/namespaces/inkscape"
   xmlns:sodipodi="http://sodipodi.sourceforge.net/DTD/sodipodi-0.dtd"
   xmlns="http://www.w3.org/2000/svg"
   xmlns:svg="http://www.w3.org/2000/svg">
  <defs
     id="defs936" />
  <sodipodi:namedview
     id="namedview934"
     pagecolor="#ffffff"
     bordercolor="#666666"
     borderopacity="1.0"
     inkscape:pageshadow="2"
     inkscape:pageopacity="0.0"
     inkscape:pagecheckerboard="0"
     showgrid="false"
     inkscape:zoom="44.9375"
     inkscape:cx="1.9582754"
     inkscape:cy="8.2670376"
     inkscape:window-width="1296"
     inkscape:window-height="969"
     inkscape:window-x="0"
     inkscape:window-y="25"
     inkscape:window-maximized="0"
     inkscape:current-layer="svg932" />
  <path
     d="M9.449 9.15a.283.283 0 01.067.006l.003-.004 1.734.293a3.435 3.435 0 01-1.388 1.744l-.673-1.626.002-.002a.294.294 0 01.255-.41zm-2.732.073a.294.294 0 01.085.344l.005.006-.666 1.61A3.448 3.448 0 014.757 9.45l1.72-.292.002.004a.288.288 0 01.238.06zm1.433.681a.293.293 0 01.108.113h.006l.848 1.532a3.443 3.443 0 01-2.218-.002l.845-1.529h.002a.293.293 0 01.409-.114zM9.633 7.63l1.3-1.163c.4.647.575 1.408.502 2.164l-1.684-.485-.002-.007a.294.294 0 01-.115-.504V7.63zm-1.067-.884a.294.294 0 01-.048-.149h-.002l-.099-1.744a3.46 3.46 0 011.995.961L8.99 6.824l-.005-.003a.294.294 0 01-.418-.075zm-1.409.137a.294.294 0 01-.146-.055l-.003.001-1.433-1.015a3.43 3.43 0 012.008-.961l-.1 1.746-.007.004a.294.294 0 01-.319.28zm-.775 1.185a.294.294 0 01-.135.08l-.001.005-1.677.484a3.429 3.429 0 01.487-2.17l1.308 1.17-.002.006a.293.293 0 01.02.425zM8 8.893l-.483-.232-.12-.519.334-.416h.536l.333.417-.12.519-.48.231z"
     fill="#000"
     id="path928"
     style="fill:#424242;fill-opacity:1" />
  <path
     fill-rule="evenodd"
     clip-rule="evenodd"
     d="M14.6 3.714l1.375 5.97a1.049 1.049 0 01-.04.595 1.041 1.041 0 01-.166.298l-3.85 4.789a1.05 1.05 0 01-.372.29c-.026.013-.054.024-.082.035a1.086 1.086 0 01-.377.071l-6.175.002a1.096 1.096 0 01-.778-.338l-.007-.007c-.016-.017-.032-.034-.047-.053L.231 10.58a1.101 1.101 0 01-.167-.3 1.067 1.067 0 01-.039-.593l1.373-5.971A1.073 1.073 0 011.973 3L7.537.341a1.072 1.072 0 01.923 0l5.564 2.657a1.074 1.074 0 01.576.716zm-4.341 8.427a1.123 1.123 0 01-.056-.134 4.334 4.334 0 001.92-2.415l.142.025a.263.263 0 01.186-.07c.2.039.394.096.581.172.098.044.197.082.299.115l.053.012.033.006.007.002.004.001a.334.334 0 10.148-.649 1.946 1.946 0 01-.034-.008l-.063-.015a2.81 2.81 0 00-.319-.025 3.112 3.112 0 01-.597-.098.374.374 0 01-.144-.145l-.134-.039a4.327 4.327 0 00-.694-2.997 10.898 10.898 0 01.118-.106.263.263 0 01.063-.188c.153-.132.32-.249.495-.348.095-.049.188-.103.277-.162a1.449 1.449 0 00.073-.06.335.335 0 10-.415-.52l-.02.016c-.018.014-.039.03-.053.043a2.746 2.746 0 00-.22.233c-.137.15-.287.286-.45.406a.37.37 0 01-.201.022l-.127.09A4.364 4.364 0 008.367 3.97l-.008-.148a.265.265 0 01-.11-.167 3.12 3.12 0 01.039-.604c.021-.105.036-.21.045-.317v-.095a.334.334 0 10-.666.01v.085c.009.107.024.212.045.317.032.2.044.402.037.604a.363.363 0 01-.108.172l-.008.141a4.283 4.283 0 00-2.778 1.336 6.015 6.015 0 01-.12-.086.263.263 0 01-.198-.019 3.107 3.107 0 01-.449-.406 2.78 2.78 0 00-.219-.232 1.792 1.792 0 00-.059-.048l-.015-.011a.397.397 0 00-.232-.088.32.32 0 00-.265.118.353.353 0 00.082.49l.005.004.018.015.05.04c.09.06.182.114.277.162.176.1.342.216.495.348a.37.37 0 01.067.192l.107.095a4.31 4.31 0 00-.68 3.004l-.14.041a.46.46 0 01-.143.145 3.108 3.108 0 01-.596.098 2.78 2.78 0 00-.32.025l-.062.015-.027.006h-.003l-.005.002a.334.334 0 10.148.649h.005l.005-.002h.002a2.7 2.7 0 01.025-.006l.061-.014a2.71 2.71 0 00.299-.115 3.12 3.12 0 01.58-.17.37.37 0 01.192.067l.145-.025a4.334 4.334 0 001.92 2.398l-.06.145a.33.33 0 01.03.188c-.084.19-.185.372-.302.542a2.773 2.773 0 00-.179.266l-.03.063-.012.027a.334.334 0 10.601.285v-.001a3.145 3.145 0 01.042-.085c.038-.1.07-.201.096-.305.057-.21.144-.412.258-.598a.27.27 0 01.143-.07l.076-.137a4.31 4.31 0 003.073.008 10.147 10.147 0 01.07.128.26.26 0 01.17.103 3.1 3.1 0 01.23.56c.026.104.058.206.096.306l.03.063.011.022a.333.333 0 00.568.106.335.335 0 00.034-.39l-.012-.026-.031-.064a2.774 2.774 0 00-.179-.266 3.098 3.098 0 01-.295-.528.26.26 0 01.026-.197z"
     fill="#000"
     id="path930"
     style="fill:#424242;fill-opacity:1" />
</svg>
