<?xml version="1.0" encoding="UTF-8" standalone="no"?>
<svg
        id="icon"
        width="29.99996"
        height="29.99996"
        viewBox="0 0 29.99996 29.99996"
        version="1.1"
        xmlns="http://www.w3.org/2000/svg"
>
  <defs
     id="defs1">
    <style
       id="style1">
      .cls-1 {
        fill: none;
      }
    </style>
  </defs>
  <path
     d="m 15.99998,17.18408 v -4.3682 a 3.0007,3.0007 0 1 0 -2,0 v 4.3687 a 3,3 0 1 0 2,0 z m -1,-8.1841 a 1,1 0 1 1 -1,1 1.0009,1.0009 0 0 1 1,-1 z m 0,12 a 1,1 0 1 1 1,-1 1.0009,1.0009 0 0 1 -1,1 z"
     id="path1"
     style="fill:#f69923;fill-opacity:1" />
  <path
     d="m 29.41408,16.41408 a 1.9995,1.9995 0 0 0 0,-2.8282 l -5.7869,-5.7866 2.9006,-2.8628 a 2.0018,2.0018 0 1 0 -1.4416,-1.3872 l -2.8733,2.8355 -5.7988,-5.79889998 a 1.9995,1.9995 0 0 0 -2.8282,0 L 7.79928,6.37258 4.93678,3.47168 a 2.002,2.002 0 1 0 -1.3868,1.4419 l 2.835,2.8735 -5.79909998,5.7988 a 1.9995,1.9995 0 0 0 0,2.8282 l 5.79889998,5.7988 -2.8348,2.8735 a 1.9977,1.9977 0 1 0 1.387,1.4419 l 2.8625,-2.9009 5.7866,5.7867 a 1.9995,1.9995 0 0 0 2.8282,0 l 5.7988,-5.7989 2.8733,2.8355 a 1.998,1.998 0 1 0 1.4416,-1.3872 l -2.9006,-2.8628 z m -14.4141,11.5859 -13,-13 13,-13 13,13 z"
     id="path2"
     style="fill:#4bb9ec;fill-opacity:1" />
</svg>
