<?xml version="1.0" encoding="UTF-8" standalone="no"?>
<svg
        id="Layer_1"
        data-name="Layer 1"
        width="28"
        height="28"
        viewBox="0 0 28 28"
        version="1.1"
        xmlns="http://www.w3.org/2000/svg"
>
  <defs
     id="defs1">
    <style
       id="style1">
      .cls-1 {
        fill: none;
      }
    </style>
  </defs>
  <path
     d="m 28,20 h -8 v 8 h 8 z"
     id="path18"
     style="fill:#4bb9ec;fill-opacity:1" />
  <path
     d="m 26,22 v 4 h -4 v -4 z"
     id="path17"
     style="fill:#4bb9ec;fill-opacity:1" />
  <path
     d="m 18,20 h -8 v 8 h 8 z"
     id="path16"
     style="fill:#f69923;fill-opacity:1" />
  <path
     d="m 16,22 v 4 h -4 v -4 z"
     id="path15"
     style="fill:#f69923;fill-opacity:1" />
  <path
     d="M 8,20 H 0 v 8 h 8 z"
     id="path14"
     style="fill:#4bb9ec;fill-opacity:1" />
  <path
     d="m 6,22 v 4 H 2 v -4 z"
     id="path13"
     style="fill:#4bb9ec;fill-opacity:1" />
  <path
     id="path12"
     d="m 20,10 v 8 h 8 v -8 z m 2,2 h 4 v 4 h -4 z"
     style="fill:#f69923;fill-opacity:1" />
  <path
     id="path10"
     d="m 10,10 v 8 h 8 v -8 z m 2,2 h 4 v 4 h -4 z"
     style="fill:#4bb9ec;fill-opacity:1" />
  <path
     d="M 8,10 H 0 v 8 h 8 z"
     id="path8"
     style="fill:#4bb9ec;fill-opacity:1" />
  <path
     d="m 6,12 v 4 H 2 v -4 z"
     id="path7"
     style="fill:#4bb9ec;fill-opacity:1" />
  <path
     id="path6"
     d="m 20,0 v 8 h 8 V 0 Z m 2,2 h 4 v 4 h -4 z"
     style="fill:#f69923;fill-opacity:1" />
  <path
     id="path4"
     d="m 10,0 v 8 h 8 V 0 Z m 2,2 h 4 v 4 h -4 z"
     style="fill:#4bb9ec;fill-opacity:1" />
  <path
     id="path2"
     d="M 0,0 V 8 H 8 V 0 Z M 2,2 H 6 V 6 H 2 Z"
     style="fill:#4bb9ec;fill-opacity:1" />
</svg>
