<?xml version="1.0" encoding="utf-8"?>
<svg version="1.1" id="icon" xmlns="http://www.w3.org/2000/svg" x="0px" y="0px"
     width="32px" height="32px" viewBox="0 0 32 32" style="enable-background:new 0 0 32 32;" xml:space="preserve"
>
    <rect x="2" y="6" width="2" height="20" fill="#f69923"/>
    <rect x="6" y="4" width="2" height="24" fill="#f69923"/>
    <rect x="14" y="22" width="12" height="2" fill="#4bb9ec"/>
    <rect x="14" y="16" width="12" height="2" fill="#4bb9ec"/>
    <path d="M29.7,9.3l-7-7C22.5,2.1,22.3,2,22,2H12c-1.1,0-2,0.9-2,2v24c0,1.1,0.9,2,2,2h16c1.1,0,2-0.9,2-2V10
	C30,9.7,29.9,9.5,29.7,9.3z M22,4.4l5.6,5.6H22V4.4z M28,28H12V4h8v6c0,1.1,0.9,2,2,2h6V28z"  fill="#4bb9ec"/>
</svg>
