<?xml version="1.0" encoding="UTF-8" standalone="no"?>
<svg
   version="1.1"
   id="Layer_1"
   x="0px"
   y="0px"
   viewBox="0 0 59.799999 68.099998"
   xml:space="preserve"
   width="59.799999"
   height="68.099998"
   xmlns="http://www.w3.org/2000/svg">
    <defs
   id="defs4" />
<style
   type="text/css"
   id="style1">
	.jkube-icon-outer{fill-rule:evenodd;clip-rule:evenodd;}
	.jkube-icon-inner, .jkube-icon-outer{fill:#0A4E9B;}
	.jkube-text{fill: #000000;}
</style>
    <g
   id="g3"
   transform="translate(-9.2,-8.3)">
	<path
   class="jkube-icon-outer"
   d="m 9.3,59.8 c 0.9,0.8 2.5,1.5 3.5,2.1 l 21.6,12.5 c 1,0.6 2.5,1.6 3.6,2 V 70.1 L 14.8,56.6 V 29.8 C 13.2,29.4 10.6,27.1 9.2,26.9 Z"
   id="path1" />
        <path
   class="jkube-icon-outer"
   d="m 69,59.8 -0.1,-33 c -1.5,0.5 -3.9,2.6 -5.5,3 v 26.9 c -0.8,0.8 -4.9,2.9 -6.1,3.6 l -12.3,7 c -5.1,3 -4.8,2 -4.8,4.9 l 0.1,4.2 z"
   id="path2" />
        <path
   class="jkube-icon-outer"
   d="m 15.9,28 c 1.9,-0.7 4.3,-2.4 6,-3.4 1.9,-1.1 3.8,-2.2 5.7,-3.3 2.1,-1.2 3.7,-2.2 5.8,-3.4 1.7,-0.9 4.1,-2.6 5.7,-3.2 l 14.3,8.2 c 2.4,1.4 4.7,2.7 7.2,4.1 2.1,1.2 1.6,1 3.7,-0.1 1,-0.6 2.7,-1.4 3.4,-2.1 C 67,24.1 39.4,8.3 39.2,8.3 39,8.3 11.4,24 10.5,24.9 Z"
   id="path3" />
</g>
    <path
   class="jkube-icon-inner"
   d="M 30,9.5 8.6,21.8 V 46.5 L 30,58.8 51.4,46.5 V 21.8 Z m 7.4,29 c 0,1.8 -0.5,3.6 -1.4,5.1 -0.9,1.6 -2.2,2.8 -3.8,3.7 -1.6,0.9 -3.3,1.4 -5.2,1.4 -1.9,0 -3.6,-0.5 -5.2,-1.4 C 20.2,46.4 18.9,45.1 18,43.6 17.1,42 16.6,40.3 16.6,38.5 h 6.8 c 0,0.9 0.3,1.7 1,2.4 0.7,0.7 1.5,1 2.5,1 1,0 1.8,-0.3 2.5,-1 0.7,-0.7 1,-1.5 1,-2.4 V 28.2 H 24 v -6.8 h 13.3 v 17.1 z"
   id="path4" />
</svg>
