
<svg width="202" height="57" viewBox="0 0 202 57" fill="none" xmlns="http://www.w3.org/2000/svg">
    <path d="M27.1872 51.3759C26.1036 50.3581 26.261 48.6045 27.59 46.8837C28.5748 45.6097 32.6898 41.4361 35.659 38.6976L36.8598 37.5919L34.9487 33.4952C32.807 28.9006 32.818 28.8127 35.6443 28.4978L37.2003 28.3258L38.9393 30.9544C39.8948 32.4005 40.8174 33.5831 40.9822 33.5831C41.1469 33.5831 42.864 32.2065 44.7933 30.5261C48.1432 27.6045 48.3519 27.4764 49.4868 27.6302C50.1715 27.7253 50.7792 27.6668 50.922 27.4947C51.2588 27.092 52.2253 27.6887 52.2253 28.3001C52.2253 28.5528 51.7421 29.1898 51.1563 29.717C48.751 31.877 43.6218 36.9879 43.6218 37.2222C43.6218 37.3613 44.6542 39.1442 45.921 41.1871L48.059 44.6432C48.1542 44.7969 48.1359 44.9946 48.0151 45.1264L47.5062 45.5182C47.1218 45.9429 46.8619 46.276 46.8106 46.6934C46.9021 46.9496 46.5177 47.0741 46.1699 47.2352C45.2876 47.6453 44.6359 47.1437 41.9414 43.9805C40.7076 42.5307 39.5763 41.3409 39.4262 41.3372C39.0931 41.3299 35.4064 45.3607 32.5544 48.8497C30.0392 51.925 27.8243 51.9873 27.1836 51.3832L27.1872 51.3759Z" fill="#002CC4"/>
    <path d="M24.1959 27.458C24.1813 27.4361 24.163 27.4141 24.152 27.3958C18.5359 19.0119 14.4648 17.5365 14.6112 17.445C16.7457 16.0721 20.7509 17.4194 23.2258 19.6197C23.255 19.6453 23.2843 19.6783 23.3173 19.7076C23.9104 20.2128 24.0458 20.3958 24.7561 21.1866C24.8842 21.1866 27.6227 16.6359 27.641 16.6066C33.1546 7.91157 38.9208 4.23585 42.267 4.24317C43.8632 4.24317 44.1012 4.79966 44.1012 4.79966C38.6791 7.62967 34.0918 12.6746 29.3544 21.9664C28.0327 24.628 25.8068 28.9225 25.6457 29.2154C25.4041 29.6547 25.3638 28.9994 24.1996 27.458H24.1959Z" fill="#002CC4"/>
    <path d="M5.84307 27.9084C7.34411 27.5386 8.49735 27.0151 9.31377 26.3341C10.1265 25.6531 10.683 24.8404 10.9869 23.8958C11.2908 22.9513 11.4409 21.9005 11.4409 20.7473V11.8802C11.4409 10.1522 11.6459 8.728 12.0523 7.61137C12.4586 6.49475 13.1542 5.671 14.1354 5.14015C15.1166 4.60929 16.4675 4.34203 18.1809 4.34203V0C16.0099 0 14.183 0.23797 12.7039 0.710248C11.2249 1.18253 10.046 1.90742 9.15635 2.88126C8.26671 3.85511 7.62968 5.08889 7.23794 6.58261C6.84621 8.07633 6.65217 9.84097 6.65217 11.8802V18.9753C6.65217 21.399 6.16159 23.127 5.17676 24.1631C4.19559 25.1992 2.46756 25.7154 0 25.7154V31.0349C2.46756 31.0349 4.19193 31.5511 5.17676 32.5872C6.15793 33.6233 6.65217 35.3513 6.65217 37.775V44.8665C6.65217 46.9057 6.84621 48.6703 7.23794 50.164C7.62968 51.6578 8.26671 52.8915 9.15635 53.8654C10.046 54.8392 11.2249 55.5641 12.7039 56.0364C14.183 56.5087 16.0062 56.7466 18.1809 56.7466V52.401C16.4675 52.401 15.1166 52.13 14.1354 51.5919C13.1542 51.0537 12.4586 50.2299 12.0523 49.1206C11.6459 48.0113 11.4409 46.5945 11.4409 44.8628V35.9957C11.4409 34.8424 11.2908 33.7954 10.9869 32.8472C10.683 31.9026 10.1265 31.0898 9.31377 30.4089C8.50101 29.7279 7.34411 29.2044 5.84307 28.8346C5.6527 28.787 5.4367 28.7541 5.23167 28.7138V28.0292C5.4367 27.9889 5.6527 27.9523 5.84307 27.9084Z" fill="#002CC4"/>
    <path d="M60.4516 27.9084C58.9505 27.5386 57.7973 27.0151 56.9809 26.3341C56.1681 25.6531 55.6116 24.8404 55.3078 23.8958C55.0039 22.9513 54.8538 21.9005 54.8538 20.7473V11.8802C54.8538 10.1522 54.6488 8.728 54.2424 7.61137C53.836 6.49475 53.1404 5.671 52.1593 5.14015C51.1781 4.60929 49.8272 4.34203 48.1138 4.34203V0C50.2848 0 52.1117 0.23797 53.5907 0.710248C55.0698 1.18253 56.2487 1.90742 57.1383 2.88126C58.0243 3.85511 58.665 5.08889 59.0567 6.58261C59.4485 8.07633 59.6425 9.84097 59.6425 11.8802V18.9753C59.6425 21.399 60.1331 23.127 61.1179 24.1631C62.0991 25.1992 63.8271 25.7154 66.2947 25.7154V28.2855V28.4612V31.0313C63.8271 31.0313 62.1027 31.5475 61.1179 32.5836C60.1367 33.6196 59.6425 35.3477 59.6425 37.7713V44.8628C59.6425 46.902 59.4485 48.6667 59.0567 50.1604C58.665 51.6541 58.028 52.8879 57.1383 53.8617C56.2523 54.8356 55.0698 55.5605 53.5907 56.0327C52.1117 56.505 50.2884 56.743 48.1138 56.743V52.3973C49.8272 52.3973 51.1781 52.1264 52.1593 51.5882C53.1404 51.05 53.836 50.2263 54.2424 49.117C54.6488 48.0077 54.8538 46.5908 54.8538 44.8591V35.992C54.8538 34.8388 55.0039 33.7917 55.3078 32.8435C55.6116 31.8989 56.1681 31.0862 56.9809 30.4052C57.7936 29.7243 58.9505 29.2007 60.4516 28.831C60.642 28.7834 60.858 28.7504 61.063 28.7101V28.0255C60.858 27.9852 60.642 27.9486 60.4516 27.9047V27.9084Z" fill="#002CC4"/>
    <path d="M94.1153 2.28085H98.1644V18.1187C98.1571 19.5721 97.8496 20.8205 97.2418 21.8639C96.6341 22.9073 95.7847 23.7128 94.6937 24.2729C93.6064 24.8331 92.3397 25.115 90.8935 25.115C89.5719 25.115 88.3857 24.877 87.335 24.4047C86.2842 23.9324 85.4495 23.2295 84.8308 22.2996C84.2157 21.3697 83.9082 20.2091 83.9082 18.8252H87.9683C87.9757 19.433 88.1111 19.9602 88.3711 20.3995C88.631 20.8388 88.9934 21.1757 89.4547 21.41C89.916 21.6443 90.4469 21.7614 91.051 21.7614C91.7026 21.7614 92.2555 21.6223 92.7131 21.3477C93.1671 21.0731 93.5149 20.6631 93.7528 20.1213C93.9908 19.5794 94.1153 18.9131 94.1226 18.1187V2.28085H94.1153Z" fill="#1C1E21"/>
    <path d="M114.837 8.47537C114.734 7.51617 114.302 6.76565 113.545 6.23113C112.787 5.69661 111.802 5.42935 110.59 5.42935C109.741 5.42935 109.008 5.55749 108.401 5.81377C107.793 6.07004 107.328 6.41784 107.006 6.85717C106.684 7.2965 106.519 7.79807 106.512 8.36554C106.512 8.83415 106.621 9.24053 106.837 9.58834C107.053 9.93248 107.35 10.2254 107.723 10.4633C108.097 10.7013 108.511 10.9027 108.965 11.0637C109.418 11.2248 109.876 11.3603 110.341 11.4701L112.454 11.9973C113.303 12.195 114.123 12.4623 114.914 12.7991C115.701 13.1359 116.411 13.5606 117.037 14.0732C117.663 14.5857 118.161 15.2081 118.527 15.933C118.893 16.6579 119.076 17.5109 119.076 18.4847C119.076 19.8027 118.74 20.9633 118.066 21.9664C117.392 22.9659 116.418 23.7494 115.144 24.3095C113.87 24.8697 112.333 25.1516 110.531 25.1516C108.73 25.1516 107.258 24.8806 105.973 24.3388C104.685 23.797 103.682 23.0062 102.96 21.9628C102.239 20.923 101.847 19.6526 101.789 18.1589H105.805C105.864 18.9424 106.105 19.5977 106.53 20.1176C106.955 20.6375 107.511 21.0255 108.196 21.2855C108.88 21.5454 109.649 21.6699 110.499 21.6699C111.348 21.6699 112.164 21.5344 112.834 21.2672C113.504 20.9999 114.031 20.6265 114.412 20.1469C114.793 19.6673 114.987 19.1035 114.994 18.4591C114.987 17.8733 114.815 17.3864 114.478 17.002C114.141 16.6176 113.669 16.2954 113.065 16.0355C112.461 15.7755 111.754 15.5412 110.949 15.3362L108.386 14.6772C106.53 14.2013 105.065 13.4764 103.993 12.5062C102.92 11.536 102.382 10.2437 102.382 8.62913C102.382 7.30382 102.744 6.1396 103.466 5.14379C104.187 4.14798 105.172 3.37183 106.42 2.81901C107.665 2.26619 109.078 1.98795 110.656 1.98795C112.234 1.98795 113.658 2.26619 114.863 2.81901C116.067 3.37183 117.015 4.14066 117.707 5.11816C118.395 6.09567 118.751 7.21962 118.773 8.49001H114.844L114.837 8.47537Z" fill="#1C1E21"/>
    <path d="M142.83 13.546C142.83 15.9732 142.376 18.0491 141.471 19.7771C140.567 21.5051 139.333 22.8268 137.777 23.742C136.218 24.6573 134.453 25.1186 132.48 25.1186C130.506 25.1186 128.742 24.6573 127.182 23.7384C125.623 22.8194 124.392 21.4941 123.488 19.7661C122.584 18.0381 122.13 15.9659 122.13 13.546C122.13 11.126 122.584 9.04283 123.488 7.3148C124.392 5.58678 125.626 4.26513 127.182 3.34986C128.742 2.43459 130.506 1.9733 132.48 1.9733C134.453 1.9733 136.218 2.43093 137.777 3.34986C139.337 4.26513 140.567 5.58678 141.471 7.3148C142.376 9.04283 142.83 11.1187 142.83 13.546ZM138.726 13.546C138.726 11.8362 138.458 10.3938 137.927 9.21856C137.397 8.0397 136.661 7.15005 135.723 6.54598C134.786 5.9419 133.703 5.63803 132.48 5.63803C131.257 5.63803 130.173 5.9419 129.236 6.54598C128.299 7.15005 127.563 8.04336 127.032 9.21856C126.501 10.3938 126.234 11.8362 126.234 13.546C126.234 15.2557 126.501 16.6981 127.032 17.8733C127.563 19.0485 128.299 19.9418 129.236 20.5459C130.173 21.15 131.257 21.4539 132.48 21.4539C133.703 21.4539 134.786 21.15 135.723 20.5459C136.661 19.9418 137.397 19.0485 137.927 17.8733C138.458 16.6981 138.726 15.252 138.726 13.546Z" fill="#1C1E21"/>
    <path d="M165.21 2.28085V24.8074H161.581L150.968 9.46388H150.781V24.8074H146.699V2.28085H150.349L160.952 17.6354H161.149V2.28085H165.21Z" fill="#1C1E21"/>
    <path d="M96.9636 38.0972C96.8611 37.138 96.4291 36.3874 95.6712 35.8529C94.9134 35.3184 93.9286 35.0512 92.7168 35.0512C91.8674 35.0512 91.1352 35.1793 90.5274 35.4356C89.9197 35.6918 89.4547 36.0396 89.1326 36.479C88.8104 36.9183 88.6456 37.4199 88.6383 37.9873C88.6383 38.456 88.7481 38.8623 88.9642 39.2101C89.1802 39.5543 89.4767 39.8472 89.8501 40.0851C90.2236 40.3231 90.6373 40.5245 91.0912 40.6855C91.5452 40.8466 92.0028 40.9821 92.4678 41.0919L94.5802 41.6191C95.4296 41.8168 96.2497 42.0841 97.0405 42.4209C97.8276 42.7577 98.5379 43.1824 99.1639 43.6949C99.7899 44.2075 100.288 44.8299 100.654 45.5548C101.02 46.2797 101.203 47.1327 101.203 48.1065C101.203 49.4245 100.866 50.5851 100.193 51.5882C99.519 52.5877 98.5452 53.3712 97.2711 53.9313C95.9971 54.4915 94.4594 54.7734 92.6582 54.7734C90.8569 54.7734 89.3852 54.5024 88.1001 53.9606C86.8114 53.4188 85.8083 52.628 85.0871 51.5846C84.3658 50.5448 83.9741 49.2744 83.9155 47.7807H87.9317C87.9903 48.5642 88.2319 49.2195 88.6566 49.7394C89.0813 50.2593 89.6378 50.6473 90.3224 50.9073C91.007 51.1672 91.7759 51.2917 92.6252 51.2917C93.4746 51.2917 94.291 51.1562 94.961 50.889C95.631 50.6217 96.1582 50.2483 96.5389 49.7687C96.9197 49.2891 97.1137 48.7253 97.121 48.0809C97.1137 47.4951 96.9416 47.0082 96.6048 46.6238C96.268 46.2394 95.7957 45.9172 95.1916 45.6573C94.5876 45.3973 93.881 45.163 93.0755 44.958L90.5128 44.299C88.6566 43.8231 87.1922 43.0982 86.1195 42.128C85.0468 41.1578 84.5086 39.8655 84.5086 38.2509C84.5086 36.9256 84.8711 35.7614 85.5923 34.7656C86.3135 33.7698 87.2984 32.9936 88.5468 32.4408C89.7952 31.888 91.2047 31.6097 92.7826 31.6097C94.3606 31.6097 95.7847 31.888 96.9892 32.4408C98.1937 32.9936 99.1419 33.7625 99.8339 34.74C100.522 35.7175 100.877 36.8414 100.899 38.1118H96.9709L96.9636 38.0972Z" fill="#1C1E21"/>
    <path d="M112.022 54.7623C110.334 54.7623 108.888 54.3926 107.683 53.653C106.475 52.9135 105.549 51.8884 104.901 50.5777C104.253 49.2707 103.927 47.7587 103.927 46.0526C103.927 44.3466 104.257 42.8199 104.915 41.5056C105.574 40.1913 106.508 39.1625 107.716 38.4266C108.921 37.6908 110.352 37.321 112 37.321C113.373 37.321 114.584 37.5736 115.646 38.0752C116.704 38.5767 117.55 39.2833 118.18 40.1986C118.809 41.1139 119.168 42.1756 119.26 43.3947H115.456C115.302 42.5819 114.936 41.901 114.361 41.3555C113.786 40.81 113.017 40.5354 112.058 40.5354C111.245 40.5354 110.528 40.7551 109.913 41.1907C109.298 41.6264 108.818 42.2524 108.478 43.0652C108.137 43.878 107.965 44.8555 107.965 45.9904C107.965 47.1253 108.134 48.1285 108.47 48.9559C108.807 49.7796 109.283 50.4166 109.895 50.8596C110.506 51.3026 111.227 51.526 112.055 51.526C112.64 51.526 113.168 51.4125 113.633 51.1891C114.097 50.9658 114.489 50.64 114.804 50.2153C115.119 49.7906 115.335 49.2744 115.452 48.663H119.256C119.161 49.8602 118.809 50.9145 118.202 51.8371C117.594 52.7561 116.763 53.4773 115.716 53.9935C114.665 54.5097 113.435 54.7697 112.018 54.7697L112.022 54.7623Z" fill="#1C1E21"/>
    <path d="M126.516 44.5333V54.4328H122.536V31.9062H126.428V40.4073H126.626C127.021 39.4554 127.636 38.7012 128.467 38.1484C129.298 37.5956 130.36 37.3173 131.652 37.3173C132.824 37.3173 133.849 37.5626 134.72 38.0532C135.592 38.5438 136.269 39.2613 136.749 40.2096C137.228 41.1578 137.47 42.311 137.47 43.6729V54.4292H133.487V44.288C133.487 43.1531 133.194 42.2671 132.612 41.6301C132.03 40.9967 131.213 40.6782 130.166 40.6782C129.463 40.6782 128.833 40.8319 128.281 41.1358C127.728 41.4397 127.296 41.879 126.985 42.4501C126.673 43.0213 126.516 43.7132 126.516 44.5296V44.5333Z" fill="#1C1E21"/>
    <path d="M148.998 54.7623C147.303 54.7623 145.843 54.4072 144.616 53.7006C143.386 52.994 142.445 51.9872 141.782 50.6876C141.123 49.3842 140.794 47.8502 140.794 46.0856C140.794 44.321 141.127 42.8199 141.79 41.5056C142.452 40.1913 143.382 39.1625 144.579 38.4266C145.773 37.6908 147.179 37.321 148.793 37.321C149.833 37.321 150.818 37.4894 151.748 37.8225C152.674 38.1557 153.498 38.6719 154.212 39.3675C154.926 40.0631 155.489 40.9491 155.9 42.0255C156.31 43.0982 156.515 44.3759 156.515 45.8586V47.0814H142.668V44.3978H152.7C152.692 43.6363 152.528 42.9554 152.206 42.3586C151.883 41.7619 151.433 41.2896 150.858 40.9454C150.283 40.6013 149.613 40.4292 148.852 40.4292C148.039 40.4292 147.322 40.6269 146.707 41.0187C146.092 41.4104 145.612 41.923 145.271 42.56C144.931 43.1933 144.755 43.889 144.748 44.6431V46.9862C144.748 47.9674 144.927 48.8094 145.286 49.5124C145.645 50.2153 146.146 50.7461 146.794 51.1196C147.442 51.493 148.197 51.6761 149.061 51.6761C149.639 51.6761 150.163 51.5918 150.635 51.4271C151.104 51.2624 151.51 51.0171 151.858 50.6949C152.202 50.3727 152.462 49.9737 152.638 49.4977L156.354 49.9151C156.119 50.8962 155.673 51.7529 155.017 52.4815C154.362 53.21 153.523 53.7775 152.506 54.1766C151.488 54.5756 150.32 54.777 149.009 54.777L148.998 54.7623Z" fill="#1C1E21"/>
    <path d="M159.875 54.4329V37.537H163.679V40.4073H163.877C164.229 39.4408 164.811 38.6829 165.627 38.1374C166.44 37.5919 167.414 37.3174 168.541 37.3174C169.669 37.3174 170.65 37.5956 171.441 38.1484C172.232 38.7012 172.784 39.4554 173.107 40.4073H173.282C173.656 39.4701 174.289 38.7195 175.179 38.1594C176.068 37.5993 177.126 37.3174 178.353 37.3174C179.909 37.3174 181.176 37.8079 182.157 38.7928C183.138 39.7739 183.632 41.2091 183.632 43.0945V54.4329H179.638V43.7096C179.638 42.6625 179.36 41.8937 178.803 41.4068C178.247 40.9198 177.566 40.6746 176.757 40.6746C175.798 40.6746 175.047 40.9748 174.509 41.5715C173.971 42.1683 173.7 42.9444 173.7 43.8963V54.4329H169.793V43.5448C169.793 42.6735 169.53 41.9742 169.006 41.4544C168.483 40.9345 167.798 40.6746 166.956 40.6746C166.385 40.6746 165.865 40.821 165.393 41.1102C164.924 41.3994 164.551 41.8058 164.272 42.333C163.994 42.8566 163.855 43.468 163.855 44.1636V54.4365H159.875V54.4329Z" fill="#1C1E21"/>
    <path d="M192.543 54.7733C191.474 54.7733 190.511 54.5793 189.655 54.1949C188.802 53.8105 188.124 53.2394 187.63 52.4852C187.136 51.731 186.887 50.7974 186.887 49.6918C186.887 48.7399 187.063 47.9491 187.414 47.3267C187.766 46.7043 188.245 46.2064 188.857 45.8293C189.464 45.4559 190.153 45.1704 190.918 44.9763C191.683 44.7823 192.477 44.6395 193.297 44.5516C194.286 44.4491 195.091 44.3539 195.706 44.2697C196.322 44.1855 196.772 44.0537 197.054 43.8743C197.336 43.6949 197.478 43.413 197.478 43.0323V42.9664C197.478 42.139 197.233 41.4946 196.743 41.0407C196.252 40.5867 195.542 40.3597 194.619 40.3597C193.645 40.3597 192.873 40.572 192.305 40.9967C191.738 41.4214 191.353 41.923 191.156 42.5051L187.44 41.9779C187.733 40.9528 188.216 40.0924 188.893 39.3968C189.567 38.7049 190.394 38.185 191.368 37.8336C192.342 37.4858 193.422 37.31 194.601 37.31C195.414 37.31 196.226 37.4052 197.032 37.5956C197.837 37.786 198.577 38.1008 199.243 38.5365C199.909 38.9722 200.448 39.5652 200.854 40.3121C201.26 41.059 201.465 41.9962 201.465 43.1165V54.4219H197.636V52.1008H197.504C197.262 52.5694 196.922 53.0087 196.486 53.4151C196.051 53.8215 195.505 54.1473 194.846 54.3926C194.191 54.6379 193.422 54.7624 192.543 54.7624V54.7733ZM193.576 51.8482C194.374 51.8482 195.069 51.6871 195.655 51.3686C196.241 51.05 196.695 50.6254 197.013 50.0982C197.332 49.571 197.493 48.9962 197.493 48.3701V46.3785C197.369 46.481 197.156 46.5762 196.86 46.6641C196.563 46.7519 196.23 46.8288 195.864 46.8947C195.498 46.9606 195.135 47.0192 194.777 47.0705C194.418 47.1217 194.107 47.1656 193.843 47.2022C193.25 47.2828 192.719 47.4146 192.247 47.5976C191.778 47.7807 191.408 48.037 191.134 48.3628C190.863 48.6886 190.727 49.1097 190.727 49.6222C190.727 50.3544 190.995 50.9109 191.529 51.2843C192.064 51.6578 192.745 51.8445 193.576 51.8445V51.8482Z" fill="#1C1E21"/>
</svg>
