<?xml version="1.0" encoding="UTF-8" standalone="no"?>
<svg
   width="98.060501"
   height="83.9375"
   viewBox="0 0 98.060501 83.9375"
   fill="none"
   version="1.1"
   id="svg14"
   xmlns="http://www.w3.org/2000/svg">
  <defs
     id="defs14" />
  <path
     d="m 40.2142,75.9934 c -1.6029,-1.5054 -1.3701,-4.0994 0.5957,-6.6446 1.4567,-1.8845 7.5435,-8.058 11.9354,-12.1086 l 1.7762,-1.6355 -2.8268,-6.0597 c -3.168,-6.7963 -3.1517,-6.9262 1.0289,-7.3919 l 2.3015,-0.2546 2.5723,3.8882 c 1.4134,2.1391 2.7781,3.8882 3.0217,3.8882 0.2437,0 2.7835,-2.0361 5.6374,-4.5218 4.955,-4.3214 5.2637,-4.5109 6.9424,-4.2835 1.0127,0.1408 1.9116,0.0542 2.1228,-0.2003 0.4983,-0.5957 1.9279,0.287 1.9279,1.1913 0,0.3737 -0.7148,1.316 -1.5813,2.0958 -3.5578,3.195 -11.1447,10.7548 -11.1447,11.1014 0,0.2058 1.5271,2.843 3.4008,5.8648 l 3.1626,5.112 c 0.1408,0.2275 0.1137,0.5199 -0.065,0.7149 l -0.7528,0.5794 c -0.5686,0.6282 -0.953,1.121 -1.0289,1.7383 0.1354,0.3791 -0.4332,0.5632 -0.9476,0.8015 -1.3051,0.6065 -2.2691,-0.1354 -6.2547,-4.8142 -1.825,-2.1445 -3.4983,-3.9045 -3.7204,-3.9099 -0.4928,-0.0108 -5.946,5.9514 -10.1645,11.1122 -3.7204,4.5489 -6.9966,4.641 -7.9443,3.7475 z"
     fill="#ffffff"
     id="path1" />
  <path
     d="M 35.7899,40.615 C 35.7683,40.5825 35.7412,40.55 35.7249,40.5229 27.4178,28.1218 21.396,25.9394 21.6126,25.804 c 3.1571,-2.0307 9.0815,-0.0379 12.7423,3.2168 0.0433,0.0379 0.0866,0.0866 0.1353,0.1299 0.8773,0.7473 1.0777,1.0181 2.1283,2.1878 0.1895,0 4.2402,-6.7312 4.2672,-6.7746 C 49.0412,11.7025 57.5704,6.26555 62.52,6.27638 c 2.361,0 2.713,0.82313 2.713,0.82313 C 57.2129,11.2856 50.4275,18.7479 43.4201,32.492 41.4652,36.4289 38.1727,42.7811 37.9344,43.2143 37.577,43.8642 37.5174,42.8948 35.7953,40.615 Z"
     fill="#ffffff"
     id="path2" />
  <path
     d="m 8.64286,41.281 c 2.22024,-0.5469 3.92614,-1.3213 5.13374,-2.3286 1.2022,-1.0072 2.0253,-2.2094 2.4748,-3.6066 0.4495,-1.3971 0.6715,-2.9513 0.6715,-4.6572 V 17.5727 c 0,-2.556 0.3032,-4.6626 0.9043,-6.3142 0.6012,-1.65171 1.6301,-2.87016 3.0814,-3.65538 1.4513,-0.78523 3.4495,-1.18055 5.9839,-1.18055 V 0 C 23.6812,0 20.979,0.351996 18.7912,1.05057 16.6034,1.74915 14.8597,2.82138 13.5437,4.26186 12.2278,5.70234 11.2855,7.5273 10.7061,9.73675 10.1267,11.9462 9.83965,14.5564 9.83965,17.5727 v 10.4949 c 0,3.585 -0.72566,6.141 -2.18238,7.6735 C 6.20596,37.2737 3.64993,38.0372 0,38.0372 v 7.8685 c 3.64993,0 6.20055,0.7636 7.65727,2.2961 1.45131,1.5325 2.18238,4.0886 2.18238,7.6735 v 10.4895 c 0,3.0163 0.28705,5.6265 0.86645,7.836 0.5794,2.2094 1.5217,4.0344 2.8376,5.4749 1.316,1.4404 3.0597,2.5127 5.2475,3.2113 2.1878,0.6985 4.8846,1.0505 8.1013,1.0505 v -6.428 c -2.5344,0 -4.5326,-0.4007 -5.9839,-1.1967 -1.4513,-0.7961 -2.4802,-2.0146 -3.0814,-3.6554 -0.6011,-1.6408 -0.9043,-3.7366 -0.9043,-6.298 V 53.2435 c 0,-1.7059 -0.222,-3.2546 -0.6715,-4.6572 C 15.8019,47.1891 14.9788,45.9869 13.7766,44.9797 12.5744,43.9724 10.8631,43.198 8.64286,42.6511 8.36126,42.5807 8.04176,42.532 7.7385,42.4724 V 41.4597 C 8.04176,41.4002 8.36126,41.346 8.64286,41.281 Z"
     fill="#ffffff"
     id="path3" />
  <path
     d="M 89.4176,41.281 C 87.1973,40.7341 85.4915,39.9597 84.2839,38.9524 83.0817,37.9452 82.2585,36.743 81.8091,35.3458 81.3596,33.9487 81.1376,32.3945 81.1376,30.6886 V 17.5727 c 0,-2.556 -0.3033,-4.6626 -0.9044,-6.3142 C 79.6321,9.60679 78.6032,8.38834 77.1519,7.60312 75.7006,6.81789 73.7023,6.42257 71.168,6.42257 V 0 c 3.2113,0 5.9135,0.351996 8.1013,1.05057 2.1878,0.69858 3.9315,1.77081 5.2474,3.21129 1.3105,1.44048 2.2582,3.26544 2.8377,5.47489 0.5794,2.20945 0.8664,4.81965 0.8664,7.83595 v 10.4949 c 0,3.585 0.7257,6.141 2.1824,7.6735 1.4513,1.5326 4.0073,2.2961 7.6573,2.2961 v 3.8016 0.2599 3.8016 c -3.65,0 -6.2006,0.7636 -7.6573,2.2961 -1.4513,1.5325 -2.1824,4.0886 -2.1824,7.6735 v 10.4895 c 0,3.0163 -0.287,5.6265 -0.8664,7.836 -0.5795,2.2094 -1.5217,4.0344 -2.8377,5.4748 -1.3105,1.4405 -3.0596,2.5128 -5.2474,3.2113 -2.1878,0.6986 -4.8846,1.0506 -8.1013,1.0506 v -6.428 c 2.5343,0 4.5326,-0.4007 5.9839,-1.1968 1.4513,-0.796 2.4802,-2.0145 3.0813,-3.6553 0.6011,-1.6408 0.9044,-3.7366 0.9044,-6.298 V 53.2381 c 0,-1.7059 0.222,-3.2547 0.6715,-4.6572 0.4494,-1.3972 1.2726,-2.5994 2.4748,-3.6066 1.2022,-1.0073 2.9134,-1.7817 5.1337,-2.3286 0.2816,-0.0704 0.6011,-0.1192 0.9044,-0.1787 v -1.0127 c -0.3033,-0.0596 -0.6228,-0.1137 -0.9044,-0.1787 z"
     fill="#ffffff"
     id="path4" />
</svg>
