
<svg width="298" height="84" viewBox="0 0 298 84" fill="none" xmlns="http://www.w3.org/2000/svg">
    <path d="M40.2142 75.9934C38.6113 74.488 38.8441 71.894 40.8099 69.3488C42.2666 67.4643 48.3534 61.2908 52.7453 57.2402L54.5215 55.6047L51.6947 49.545C48.5267 42.7487 48.543 42.6188 52.7236 42.1531L55.0251 41.8985L57.5974 45.7867C59.0108 47.9258 60.3755 49.6749 60.6191 49.6749C60.8628 49.6749 63.4026 47.6388 66.2565 45.1531C71.2115 40.8317 71.5202 40.6422 73.1989 40.8696C74.2116 41.0104 75.1105 40.9238 75.3217 40.6693C75.82 40.0736 77.2496 40.9563 77.2496 41.8606C77.2496 42.2343 76.5348 43.1766 75.6683 43.9564C72.1105 47.1514 64.5236 54.7112 64.5236 55.0578C64.5236 55.2636 66.0507 57.9008 67.9244 60.9226L71.087 66.0346C71.2278 66.2621 71.2007 66.5545 71.022 66.7495L70.2692 67.3289C69.7006 67.9571 69.3162 68.4499 69.2403 69.0672C69.3757 69.4463 68.8071 69.6304 68.2927 69.8687C66.9876 70.4752 66.0236 69.7333 62.038 65.0545C60.213 62.91 58.5397 61.15 58.3176 61.1446C57.8248 61.1338 52.3716 67.096 48.1531 72.2568C44.4327 76.8057 41.1565 76.8978 40.2088 76.0043L40.2142 75.9934Z" fill="white"/>
    <path d="M35.7899 40.615C35.7683 40.5825 35.7412 40.55 35.7249 40.5229C27.4178 28.1218 21.396 25.9394 21.6126 25.804C24.7697 23.7733 30.6941 25.7661 34.3549 29.0208C34.3982 29.0587 34.4415 29.1074 34.4902 29.1507C35.3675 29.898 35.5679 30.1688 36.6185 31.3385C36.808 31.3385 40.8587 24.6073 40.8857 24.5639C49.0412 11.7025 57.5704 6.26555 62.52 6.27638C64.881 6.27638 65.233 7.09951 65.233 7.09951C57.2129 11.2856 50.4275 18.7479 43.4201 32.492C41.4652 36.4289 38.1727 42.7811 37.9344 43.2143C37.577 43.8642 37.5174 42.8948 35.7953 40.615H35.7899Z" fill="white"/>
    <path d="M8.64286 41.281C10.8631 40.7341 12.569 39.9597 13.7766 38.9524C14.9788 37.9452 15.8019 36.743 16.2514 35.3458C16.7009 33.9487 16.9229 32.3945 16.9229 30.6886V17.5727C16.9229 15.0167 17.2261 12.9101 17.8272 11.2585C18.4284 9.60679 19.4573 8.38834 20.9086 7.60312C22.3599 6.81789 24.3581 6.42257 26.8925 6.42257V0C23.6812 0 20.979 0.351996 18.7912 1.05057C16.6034 1.74915 14.8597 2.82138 13.5437 4.26186C12.2278 5.70234 11.2855 7.5273 10.7061 9.73675C10.1267 11.9462 9.83965 14.5564 9.83965 17.5727V28.0676C9.83965 31.6526 9.11399 34.2086 7.65727 35.7411C6.20596 37.2737 3.64993 38.0372 0 38.0372V45.9057C3.64993 45.9057 6.20055 46.6693 7.65727 48.2018C9.10858 49.7343 9.83965 52.2904 9.83965 55.8753V66.3648C9.83965 69.3811 10.1267 71.9913 10.7061 74.2008C11.2855 76.4102 12.2278 78.2352 13.5437 79.6757C14.8597 81.1161 16.6034 82.1884 18.7912 82.887C20.979 83.5855 23.6758 83.9375 26.8925 83.9375V77.5095C24.3581 77.5095 22.3599 77.1088 20.9086 76.3128C19.4573 75.5167 18.4284 74.2982 17.8272 72.6574C17.2261 71.0166 16.9229 68.9208 16.9229 66.3594V53.2435C16.9229 51.5376 16.7009 49.9889 16.2514 48.5863C15.8019 47.1891 14.9788 45.9869 13.7766 44.9797C12.5744 43.9724 10.8631 43.198 8.64286 42.6511C8.36126 42.5807 8.04176 42.532 7.7385 42.4724V41.4597C8.04176 41.4002 8.36126 41.346 8.64286 41.281Z" fill="white"/>
    <path d="M89.4176 41.281C87.1973 40.7341 85.4915 39.9597 84.2839 38.9524C83.0817 37.9452 82.2585 36.743 81.8091 35.3458C81.3596 33.9487 81.1376 32.3945 81.1376 30.6886V17.5727C81.1376 15.0167 80.8343 12.9101 80.2332 11.2585C79.6321 9.60679 78.6032 8.38834 77.1519 7.60312C75.7006 6.81789 73.7023 6.42257 71.168 6.42257V0C74.3793 0 77.0815 0.351996 79.2693 1.05057C81.4571 1.74915 83.2008 2.82138 84.5167 4.26186C85.8272 5.70234 86.7749 7.5273 87.3544 9.73675C87.9338 11.9462 88.2208 14.5564 88.2208 17.5727V28.0676C88.2208 31.6526 88.9465 34.2086 90.4032 35.7411C91.8545 37.2737 94.4105 38.0372 98.0605 38.0372V41.8388V42.0987V45.9003C94.4105 45.9003 91.8599 46.6639 90.4032 48.1964C88.9519 49.7289 88.2208 52.285 88.2208 55.8699V66.3594C88.2208 69.3757 87.9338 71.9859 87.3544 74.1954C86.7749 76.4048 85.8327 78.2298 84.5167 79.6702C83.2062 81.1107 81.4571 82.183 79.2693 82.8815C77.0815 83.5801 74.3847 83.9321 71.168 83.9321V77.5041C73.7023 77.5041 75.7006 77.1034 77.1519 76.3073C78.6032 75.5113 79.6321 74.2928 80.2332 72.652C80.8343 71.0112 81.1376 68.9154 81.1376 66.354V53.2381C81.1376 51.5322 81.3596 49.9834 81.8091 48.5809C82.2585 47.1837 83.0817 45.9815 84.2839 44.9743C85.4861 43.967 87.1973 43.1926 89.4176 42.6457C89.6992 42.5753 90.0187 42.5265 90.322 42.467V41.4543C90.0187 41.3947 89.6992 41.3406 89.4176 41.2756V41.281Z" fill="white"/>
    <path d="M139.212 3.37402H145.201V26.8007C145.19 28.9506 144.735 30.7972 143.836 32.3406C142.937 33.884 141.681 35.0753 140.067 35.9039C138.459 36.7324 136.585 37.1494 134.446 37.1494C132.491 37.1494 130.737 36.7974 129.183 36.0988C127.628 35.4003 126.394 34.3605 125.478 32.985C124.569 31.6095 124.114 29.8929 124.114 27.8459H130.119C130.13 28.7448 130.331 29.5246 130.715 30.1745C131.1 30.8243 131.636 31.3225 132.318 31.6691C133 32.0157 133.786 32.189 134.679 32.189C135.643 32.189 136.461 31.9832 137.138 31.577C137.809 31.1709 138.324 30.5644 138.676 29.7629C139.028 28.9614 139.212 27.9758 139.223 26.8007V3.37402H139.212Z" fill="white"/>
    <path d="M169.862 12.5366C169.711 11.1178 169.072 10.0077 167.951 9.21704C166.83 8.4264 165.373 8.03108 163.58 8.03108C162.324 8.03108 161.241 8.22062 160.342 8.59969C159.443 8.97876 158.755 9.49322 158.279 10.1431C157.802 10.7929 157.559 11.5348 157.548 12.3742C157.548 13.0673 157.71 13.6684 158.03 14.1829C158.349 14.6919 158.788 15.1252 159.34 15.4772C159.893 15.8291 160.505 16.127 161.176 16.3653C161.848 16.6035 162.524 16.8039 163.212 16.9664L166.337 17.7462C167.593 18.0386 168.806 18.4339 169.976 18.9321C171.14 19.4303 172.191 20.0585 173.117 20.8167C174.043 21.5748 174.779 22.4954 175.321 23.5676C175.862 24.6399 176.133 25.9017 176.133 27.3421C176.133 29.2916 175.635 31.0083 174.639 32.4921C173.642 33.9705 172.202 35.1294 170.317 35.9579C168.433 36.7865 166.158 37.2034 163.494 37.2034C160.829 37.2034 158.653 36.8027 156.752 36.0012C154.846 35.1998 153.362 34.0301 152.295 32.4867C151.228 30.9487 150.649 29.0696 150.562 26.8602H156.503C156.589 28.019 156.947 28.9884 157.575 29.7574C158.203 30.5263 159.026 31.1004 160.039 31.4849C161.051 31.8693 162.189 32.0535 163.445 32.0535C164.701 32.0535 165.909 31.8531 166.9 31.4578C167.891 31.0625 168.671 30.5101 169.234 29.8007C169.797 29.0913 170.084 28.2573 170.095 27.3042C170.084 26.4378 169.83 25.7175 169.332 25.1489C168.833 24.5803 168.135 24.1038 167.241 23.7193C166.348 23.3348 165.303 22.9882 164.111 22.6849L160.32 21.7102C157.575 21.0062 155.409 19.934 153.822 18.4989C152.235 17.0638 151.439 15.1522 151.439 12.7641C151.439 10.8037 151.975 9.08165 153.042 7.60868C154.109 6.13572 155.566 4.98767 157.412 4.16995C159.254 3.35224 161.344 2.94067 163.678 2.94067C166.012 2.94067 168.119 3.35224 169.9 4.16995C171.682 4.98767 173.084 6.12488 174.108 7.57078C175.126 9.01667 175.651 10.6792 175.684 12.5583H169.873L169.862 12.5366Z" fill="white"/>
    <path d="M211.268 20.0368C211.268 23.6271 210.596 26.6976 209.259 29.2537C207.921 31.8097 206.096 33.7646 203.795 35.1185C201.488 36.4723 198.878 37.1546 195.959 37.1546C193.04 37.1546 190.43 36.4723 188.123 35.113C185.816 33.7538 183.996 31.7935 182.659 29.2374C181.321 26.6814 180.65 23.6163 180.65 20.0368C180.65 16.4573 181.321 13.3759 182.659 10.8199C183.996 8.26387 185.821 6.30894 188.123 4.95511C190.43 3.60128 193.04 2.91895 195.959 2.91895C198.878 2.91895 201.488 3.59586 203.795 4.95511C206.102 6.30894 207.921 8.26387 209.259 10.8199C210.596 13.3759 211.268 16.4464 211.268 20.0368ZM205.197 20.0368C205.197 17.5078 204.802 15.3742 204.017 13.6359C203.232 11.8921 202.143 10.5762 200.757 9.68269C199.37 8.78916 197.768 8.33969 195.959 8.33969C194.15 8.33969 192.547 8.78916 191.161 9.68269C189.774 10.5762 188.686 11.8976 187.901 13.6359C187.116 15.3742 186.72 17.5078 186.72 20.0368C186.72 22.5657 187.116 24.6994 187.901 26.4377C188.686 28.176 189.774 29.4974 191.161 30.3909C192.547 31.2844 194.15 31.7339 195.959 31.7339C197.768 31.7339 199.37 31.2844 200.757 30.3909C202.143 29.4974 203.232 28.176 204.017 26.4377C204.802 24.6994 205.197 22.5603 205.197 20.0368Z" fill="white"/>
    <path d="M244.372 3.37402V36.6945H239.005L223.306 13.9989H223.03V36.6945H216.992V3.37402H222.391L238.074 26.0859H238.366V3.37402H244.372Z" fill="white"/>
    <path d="M143.425 56.3523C143.273 54.9335 142.634 53.8233 141.513 53.0327C140.392 52.2421 138.935 51.8468 137.143 51.8468C135.887 51.8468 134.804 52.0363 133.905 52.4154C133.006 52.7944 132.318 53.3089 131.841 53.9587C131.365 54.6086 131.121 55.3505 131.11 56.1898C131.11 56.883 131.273 57.4841 131.592 57.9986C131.912 58.5076 132.35 58.9408 132.903 59.2928C133.455 59.6448 134.067 59.9427 134.739 60.1809C135.41 60.4192 136.087 60.6196 136.775 60.782L139.899 61.5618C141.156 61.8543 142.369 62.2496 143.538 62.7478C144.703 63.246 145.753 63.8742 146.679 64.6323C147.605 65.3905 148.342 66.3111 148.883 67.3833C149.425 68.4556 149.696 69.7173 149.696 71.1578C149.696 73.1073 149.197 74.824 148.201 76.3078C147.205 77.7862 145.764 78.945 143.88 79.7736C141.995 80.6021 139.721 81.0191 137.056 81.0191C134.392 81.0191 132.215 80.6184 130.314 79.8169C128.408 79.0154 126.924 77.8457 125.857 76.3024C124.791 74.7644 124.211 72.8853 124.125 70.6758H130.065C130.152 71.8347 130.509 72.8041 131.137 73.573C131.766 74.342 132.589 74.916 133.601 75.3005C134.614 75.685 135.751 75.8691 137.008 75.8691C138.264 75.8691 139.472 75.6688 140.463 75.2735C141.454 74.8781 142.233 74.3258 142.797 73.6164C143.36 72.907 143.647 72.073 143.658 71.1199C143.647 70.2534 143.392 69.5332 142.894 68.9646C142.396 68.396 141.697 67.9194 140.804 67.535C139.91 67.1505 138.865 66.8039 137.674 66.5006L133.883 65.5259C131.137 64.8219 128.971 63.7496 127.385 62.3146C125.798 60.8795 125.002 58.9679 125.002 56.5798C125.002 54.6194 125.538 52.8973 126.605 51.4244C127.672 49.9514 129.128 48.8033 130.975 47.9856C132.822 47.1679 134.906 46.7563 137.24 46.7563C139.574 46.7563 141.681 47.1679 143.463 47.9856C145.244 48.8033 146.647 49.9406 147.67 51.3865C148.688 52.8323 149.214 54.4948 149.246 56.374H143.436L143.425 56.3523Z" fill="white"/>
    <path d="M165.698 81.0027C163.202 81.0027 161.063 80.4558 159.281 79.3619C157.494 78.268 156.124 76.7517 155.165 74.813C154.207 72.8797 153.725 70.6432 153.725 68.1197C153.725 65.5961 154.212 63.3379 155.187 61.3938C156.162 59.4497 157.543 57.928 159.33 56.8395C161.111 55.751 163.229 55.2041 165.666 55.2041C167.696 55.2041 169.489 55.5778 171.059 56.3197C172.624 57.0616 173.875 58.1067 174.807 59.4605C175.738 60.8144 176.269 62.3848 176.404 64.1881H170.778C170.55 62.9859 170.009 61.9787 169.159 61.1718C168.308 60.3649 167.171 59.9588 165.752 59.9588C164.55 59.9588 163.489 60.2837 162.579 60.9281C161.669 61.5725 160.96 62.4985 160.456 63.7007C159.952 64.9029 159.698 66.3488 159.698 68.0276C159.698 69.7063 159.947 71.1901 160.445 72.414C160.943 73.6325 161.647 74.5747 162.552 75.23C163.456 75.8852 164.523 76.2156 165.747 76.2156C166.613 76.2156 167.393 76.0477 168.081 75.7174C168.769 75.387 169.348 74.9051 169.814 74.2769C170.28 73.6487 170.599 72.8851 170.772 71.9808H176.399C176.258 73.7516 175.738 75.3112 174.839 76.6759C173.94 78.0351 172.711 79.1019 171.162 79.8655C169.608 80.629 167.788 81.0135 165.693 81.0135L165.698 81.0027Z" fill="white"/>
    <path d="M187.137 65.8723V80.5153H181.251V47.1948H187.007V59.7692H187.3C187.885 58.3612 188.795 57.2457 190.024 56.4279C191.253 55.6102 192.824 55.1987 194.735 55.1987C196.468 55.1987 197.984 55.5615 199.273 56.2872C200.562 57.0128 201.564 58.0742 202.273 59.4768C202.983 60.8793 203.34 62.5852 203.34 64.5997V80.5099H197.448V65.5095C197.448 63.8307 197.015 62.5202 196.154 61.5779C195.293 60.6411 194.085 60.1699 192.537 60.1699C191.497 60.1699 190.565 60.3974 189.748 60.8469C188.93 61.2963 188.291 61.9462 187.831 62.791C187.37 63.6357 187.137 64.6592 187.137 65.8669V65.8723Z" fill="white"/>
    <path d="M220.393 81.0027C217.886 81.0027 215.725 80.4774 213.911 79.4323C212.091 78.3871 210.699 76.8979 209.719 74.9754C208.744 73.0476 208.257 70.7786 208.257 68.1684C208.257 65.5582 208.75 63.3379 209.73 61.3938C210.71 59.4497 212.086 57.928 213.857 56.8395C215.622 55.751 217.701 55.2041 220.09 55.2041C221.628 55.2041 223.084 55.4532 224.46 55.946C225.83 56.4388 227.048 57.2024 228.104 58.2313C229.16 59.2602 229.994 60.5707 230.601 62.1628C231.207 63.7495 231.51 65.6394 231.51 67.8326V69.6414H211.03V65.6719H225.868C225.857 64.5455 225.613 63.5383 225.137 62.6556C224.66 61.7729 223.994 61.0743 223.144 60.5653C222.294 60.0562 221.303 59.8017 220.176 59.8017C218.974 59.8017 217.913 60.0941 217.003 60.6736C216.093 61.253 215.384 62.0112 214.88 62.9534C214.376 63.8903 214.116 64.9192 214.106 66.0348V69.5006C214.106 70.9519 214.371 72.1974 214.902 73.2371C215.432 74.2769 216.174 75.0621 217.133 75.6145C218.091 76.1668 219.207 76.4376 220.485 76.4376C221.341 76.4376 222.115 76.313 222.813 76.0693C223.507 75.8257 224.108 75.4628 224.622 74.9863C225.131 74.5097 225.516 73.9195 225.776 73.2155L231.272 73.8328C230.926 75.2841 230.265 76.5513 229.296 77.629C228.326 78.7066 227.086 79.546 225.581 80.1363C224.075 80.7265 222.348 81.0244 220.409 81.0244L220.393 81.0027Z" fill="white"/>
    <path d="M236.482 80.5154V55.5236H242.108V59.7693H242.401C242.921 58.3396 243.782 57.2186 244.989 56.4118C246.192 55.6049 247.632 55.1987 249.3 55.1987C250.968 55.1987 252.419 55.6103 253.589 56.428C254.759 57.2457 255.576 58.3613 256.053 59.7693H256.313C256.865 58.3829 257.802 57.2728 259.118 56.4443C260.434 55.6157 261.999 55.1987 263.813 55.1987C266.115 55.1987 267.988 55.9244 269.44 57.3811C270.891 58.8324 271.622 60.9552 271.622 63.7441V80.5154H265.714V64.6539C265.714 63.1051 265.302 61.9679 264.479 61.2476C263.656 60.5274 262.649 60.1646 261.452 60.1646C260.033 60.1646 258.923 60.6086 258.127 61.4913C257.331 62.374 256.93 63.5221 256.93 64.9301V80.5154H251.152V64.4102C251.152 63.1214 250.762 62.087 249.988 61.318C249.213 60.5491 248.201 60.1646 246.955 60.1646C246.11 60.1646 245.341 60.3812 244.643 60.809C243.95 61.2368 243.397 61.8379 242.986 62.6177C242.574 63.3921 242.368 64.2965 242.368 65.3254V80.5208H236.482V80.5154Z" fill="white"/>
    <path d="M284.803 81.0191C283.221 81.0191 281.797 80.7321 280.53 80.1635C279.268 79.5949 278.266 78.7501 277.535 77.6345C276.804 76.519 276.436 75.138 276.436 73.5026C276.436 72.0946 276.696 70.9249 277.216 70.0043C277.736 69.0837 278.445 68.3472 279.349 67.7894C280.248 67.2371 281.266 66.8147 282.398 66.5277C283.53 66.2407 284.705 66.0295 285.918 65.8995C287.38 65.7479 288.572 65.6071 289.482 65.4825C290.391 65.358 291.057 65.163 291.474 64.8977C291.891 64.6323 292.103 64.2153 292.103 63.6521V63.5547C292.103 62.3308 291.74 61.3777 291.014 60.7062C290.288 60.0347 289.238 59.699 287.873 59.699C286.433 59.699 285.29 60.013 284.451 60.6412C283.611 61.2694 283.043 62.0113 282.75 62.8723L277.254 62.0925C277.687 60.5762 278.402 59.3036 279.404 58.2747C280.4 57.2512 281.624 56.4822 283.064 55.9624C284.505 55.4479 286.102 55.188 287.846 55.188C289.048 55.188 290.251 55.3288 291.442 55.6104C292.633 55.892 293.727 56.3577 294.713 57.0021C295.698 57.6465 296.494 58.5238 297.095 59.6286C297.697 60.7333 298 62.1196 298 63.7767V80.4992H292.335V77.0659H292.14C291.783 77.7591 291.279 78.4089 290.635 79.01C289.991 79.6111 289.184 80.0931 288.209 80.4559C287.24 80.8187 286.102 81.0028 284.803 81.0028V81.0191ZM286.33 76.6922C287.51 76.6922 288.539 76.454 289.406 75.9828C290.272 75.5117 290.944 74.8835 291.415 74.1037C291.886 73.3239 292.124 72.4737 292.124 71.5477V68.6017C291.94 68.7534 291.626 68.8942 291.187 69.0241C290.749 69.1541 290.256 69.2678 289.714 69.3653C289.173 69.4628 288.637 69.5494 288.106 69.6252C287.575 69.7011 287.115 69.766 286.725 69.8202C285.848 69.9393 285.063 70.1343 284.364 70.405C283.671 70.6758 283.124 71.0549 282.718 71.5369C282.317 72.0188 282.117 72.6416 282.117 73.3997C282.117 74.4828 282.512 75.3059 283.303 75.8583C284.093 76.4106 285.101 76.6868 286.33 76.6868V76.6922Z" fill="white"/>
</svg>
