<?xml version="1.0" encoding="UTF-8" standalone="no"?>
<svg
   width="167.11378"
   height="150.6579"
   viewBox="0 0 44.215998 39.860972"
   version="1.1"
   id="svg24"
   xmlns="http://www.w3.org/2000/svg">
  <defs
     id="defs24" />
  <path
     fill="#4d4d4d"
     d="M 5.795,9.8684869 11.511,0.00248685 34.53,-5.1314594e-4 40.215,9.9634869 l 0.007,19.9320001 -5.691,9.958 -23.012,0.008 -5.782,-9.965 z"
     id="path1" />
  <path
     fill="#ededed"
     d="m 5.738,29.893487 h 10.374 l -5.698,-10.041 4.634,-9.9820001 -9.252,-0.002 L 0,19.933487"
     id="path2" />
  <path
     fill="#e0e0e0"
     d="m 19.258,29.893487 h 7.583 l 6.705,-9.773 -6.588,-10.1560001 h -8.92 l -5.373,9.8140001 z"
     id="path3" />
  <path
     fill="#acacac"
     d="m 0,19.932487 5.738,9.964 h 10.375 l -5.636,-9.93 z"
     id="path4" />
  <path
     fill="#9e9e9e"
     d="m 12.774,19.934487 6.485,9.962 h 7.582 l 6.6,-9.958 z"
     id="path5" />
  <path
     fill="#00b8e3"
     d="m 15.342,19.939487 -1.957,0.57 -1.878,-0.571 7.667,-13.2900001 1.918,3.318"
     id="path6" />
  <path
     fill="#33c6e9"
     d="m 21.084,29.893487 -1.908,3.332 -5.093,-5.487 -2.58,-7.797 v -0.004 h 3.838"
     id="path7" />
  <path
     fill="#008aaa"
     d="m 11.508,19.938487 h -0.004 v 0.003 l -1.917,3.322 -1.925,-3.307 1.952,-3.386 5.728,-9.9200001 h 3.834"
     id="path8" />
  <path
     fill="#d4d4d4"
     d="M 32.604,29.893487 H 44.216 L 44.209,9.9634869 H 32.604 Z"
     id="path9" />
  <path
     fill="#919191"
     d="m 32.604,19.965487 v 9.93 h 11.591 v -9.93 z"
     id="path10" />
  <path
     fill="#00b8e3"
     d="m 19.178,33.229487 h -3.837 l -5.754,-9.967 1.917,-3.32 z"
     id="path11" />
  <path
     fill="#008aaa"
     d="m 34.519,19.938487 -7.669,13.288 c -0.705,-1.036 -1.913,-3.33 -1.913,-3.33 l 5.753,-9.96 z"
     id="path12" />
  <path
     fill="#00b8e3"
     d="m 30.68,33.226487 -3.83,-10e-4 7.67,-13.288 1.916,-3.318 1.922,3.34 m -3.839,-0.021 h -3.828 l -5.755,-9.9730001 1.905,-3.314 4.658,5.9220001 z"
     id="path13" />
  <path
     fill="#33c6e9"
     d="m 36.436,16.617487 v 0.003 l -1.917,3.318 -7.677,-13.2860001 3.841,0.002 z"
     id="path14" />
</svg>
