<?xml version="1.0" encoding="UTF-8" standalone="no"?>
<svg
   class="pf-v6-svg"
   viewBox="0 0 1088 963.75"
   fill="currentColor"
   aria-hidden="true"
   role="img"
   width="32"
   height="30.117188"
   version="1.1"
   id="svg1"
   sodipodi:docname="landscape.svg"
   inkscape:version="1.4.3 (0d15f75, 2025-12-25)"
   xmlns:inkscape="http://www.inkscape.org/namespaces/inkscape"
   xmlns:sodipodi="http://sodipodi.sourceforge.net/DTD/sodipodi-0.dtd"
   xmlns="http://www.w3.org/2000/svg"
   xmlns:svg="http://www.w3.org/2000/svg">
  <sodipodi:namedview
     id="namedview1"
     pagecolor="#ffffff"
     bordercolor="#000000"
     borderopacity="0.25"
     inkscape:showpageshadow="2"
     inkscape:pageopacity="0.0"
     inkscape:pagecheckerboard="0"
     inkscape:deskcolor="#d1d1d1"
     inkscape:zoom="4.5961941"
     inkscape:cx="12.727922"
     inkscape:cy="13.380636"
     inkscape:window-width="1280"
     inkscape:window-height="1382"
     inkscape:window-x="2560"
     inkscape:window-y="30"
     inkscape:window-maximized="0"
     inkscape:current-layer="svg1" />
  <defs
     id="defs1" />
  <path
     d="m 96,575.99219 c 53,0 96,43 96,96 0,53 -43,96 -96,96 -53,0 -96,-43 -96,-96 0,-53 43,-96 96,-96"
     id="path12"
     style="fill:#f69923;fill-opacity:1" />
  <path
     d="m 256,-29.707813 c 60.6,0 109.7,49.1 109.7,109.7 0,60.600003 -49.1,109.700003 -109.7,109.700003 -60.6,0 -109.7,-49.1 -109.7,-109.700003 0,-60.6 49.1,-109.7 109.7,-109.7"
     id="path11"
     style="fill:#f69923;fill-opacity:1" />
  <path
     d="m 900.8,680.29219 c 42.8,-42.8 112.3,-42.8 155.1,0 21.4,21.4 32.1,49.5 32.1,77.6 0,28.1 -10.7,56.1 -32.1,77.6 -42.8,42.8 -112.3,42.8 -155.1,0 -42.8,-42.9 -42.8,-112.3 0,-155.2"
     id="path10"
     style="fill:#f69923;fill-opacity:1" />
  <path
     id="path9"
     d="m 877.82422,-32 c -80.7,0 -146.29297,65.59297 -146.29297,146.29297 0,28.8 8.17813,55.52656 22.57813,78.22656 l -84.13672,85.9961 c -43.5,-34.1 -98.28047,-54.51953 -157.98047,-54.51953 -34.2,0 -66.8875,6.72578 -96.6875,18.92578 l -26.69531,-35.32813 c -13.50001,-18.3 -37.72266,-23.52187 -53.72266,-11.42187 -16.2,11.9 -18.5125,36.61797 -5.3125,54.91797 l 22.3125,29.21875 c -58.5,46.9 -95.89063,118.88359 -95.89063,199.68359 0,22.7 3,44.67578 8.5,65.67578 l -25.5,13.21484 c -19.2,9.4 -28.28593,32.03594 -20.58593,50.33594 7.7,18.3 29.875,25.56875 48.875,16.46875 l 25.63281,-13.28125 c 36.2,59.8 96.1789,103.60313 166.87891,118.20313 l -5.97657,72.98047 c -40.3,11.5 -69.79297,48.47109 -69.79297,92.37109 0,53 42.95704,96.02345 95.95704,96.02345 53,0 96.02343,-43.02345 96.02343,-96.02345 0,-39.7 -24.1375,-73.65391 -58.4375,-88.25391 l 5.91016,-71.91796 c 81.8,-3.60001 153.69062,-45.67422 197.89062,-108.57422 l 68.39844,46.55078 c 18.3,12.6 42.35862,9.13047 53.05859,-7.76953 10.70002,-17.1 4.48829,-41.09063 -14.01171,-53.39063 l -74.24219,-50.53516 c 8.7,-25.79997 13.41406,-53.37812 13.41406,-82.07812 0,-55.4 -17.58047,-106.68437 -47.48047,-148.48438 l 86.85938,-88.71874 c 20.8,11.4 44.85703,18.1289 70.45703,18.1289 80.7,0 146.29298,-65.59297 146.29298,-146.29297 C 1024.1172,33.925003 958.52422,-32 877.82422,-32 Z m 0,68.597656 c 43,0 77.69531,34.695312 77.69531,77.695314 0,43 -34.69531,77.69531 -77.69531,77.69531 -43,0 -77.69531,-34.69531 -77.69531,-77.69531 0,-43.000002 34.69531,-77.695314 77.69531,-77.695314 z M 511.99219,351.96094 c 70.7,0 128.03125,57.33125 128.03125,128.03125 0,70.7 -57.23125,128.03125 -128.03125,128.03125 -70.7,0 -127.96485,-57.33125 -127.96485,-128.03125 0,-70.7 57.26485,-128.03125 127.96485,-128.03125 z m -32.00781,496.05469 c 26.5,0 48.01171,21.44531 48.01171,47.94531 0,26.5 -21.51173,48.01172 -48.01171,48.01172 -26.50001,0 -48.01172,-21.51172 -48.01172,-48.01172 0,-26.5 21.51172,-47.94531 48.01172,-47.94531 z"
     style="fill:#4bb9ec;fill-opacity:1" />
</svg>
