<?xml version="1.0" encoding="UTF-8" standalone="no"?>
<svg
   id="Icon"
   width="28"
   height="28"
   viewBox="0 0 28 28"
   version="1.1"
   xmlns="http://www.w3.org/2000/svg">
  <defs
     id="defs1">
    <style
       id="style1">
      .cls-1 {
        fill: none;
      }
    </style>
  </defs>
  <path
     d="m 22.349456,11.0625 c 0.3803,-0.3802 0.3803,-0.9965 0,-1.3767 -0.3799,-0.3801 -0.9966,-0.3801 -1.3766,0 l -8.145499,8.1454 c -1.1384,1.1387 -2.991201,1.1387 -4.130101,2e-4 -0.5516,-0.5517 -0.8554,-1.2851 -0.8554,-2.0651 0,-0.78 0.3038,-1.5134 0.8554,-2.0651 l 8.1453,-8.1455 c 0.3803,-0.3802 0.3803,-0.9965 0,-1.3767 -0.379899,-0.3801 -0.996599,-0.3801 -1.376599,0 l -8.145501,8.1455 c -0.9194,0.9194 -1.4257,2.1418 -1.4257,3.4418 0,1.3 0.5063,2.5224 1.4257,3.4419 0.9489,0.9488 2.1953,1.4231 3.4417,1.4231 1.2464,0 2.492901,-0.4744 3.4418,-1.4233 l 8.1454,-8.1454 z"
     id="path2"
     style="fill:#f69923;fill-opacity:1" />
  <path
     d="m 15.199357,23.8339 c -0.1264,0.1266 -0.1264,0.3324 0,0.459 l 2.045299,2.0453 c 0.3803,0.3801 0.3803,0.9964 0,1.3766 -0.19,0.1901 -0.4392,0.2852 -0.6883,0.2852 -0.2491,0 -0.4983,-0.0951 -0.688299,-0.2852 l -2.045401,-2.0453 c -0.8856,-0.8855 -0.8856,-2.3266 0,-3.2121 l 9.9609,-9.9609 c 0.5515,-0.5516 0.8554,-1.285 0.8554,-2.065 0,-0.78 -0.3039,-1.5134 -0.8554,-2.0651 l -0.0574,-0.0574 c -1.1387,-1.1386 -2.9916,-1.1387 -4.1303,0 l -8.2027,8.2027 -0.1147,0.1147 c -0.1901,0.1901 -0.4392,0.2852 -0.6884,0.2852 -0.2492,0 -0.4983,-0.0951 -0.6884,-0.2852 -0.3802,-0.3801 -0.3802,-0.9964 0,-1.3766 l 0.1147,-0.1147 8.2029,-8.2029 c 0.5515,-0.5516 0.8553,-1.285 0.8553,-2.0651 0,-0.7801 -0.3037,-1.5134 -0.8553,-2.065 -0.5517,-0.5516 -1.285,-0.8554 -2.0651,-0.8554 -0.780099,0 -1.513399,0.3037 -2.064999,0.8554 L 3.075756,13.8159 c -0.3801,0.3801 -0.9966,0.3801 -1.3767,0 -0.3801,-0.3801 -0.3802,-0.9965 0,-1.3767 L 12.712657,1.4256 C 13.632057,0.5063 14.854357,0 16.154356,0 c 1.3,0 2.5226,0.5063 3.4419,1.4256 0.9193,0.9193 1.4255,2.1416 1.4255,3.4417 0,0.2332 -0.0169,0.4637 -0.049,0.6906 1.4645,-0.2075 3.0061,0.2505 4.1301,1.3745 l 0.0574,0.0574 c 0.9194,0.9193 1.4258,2.1416 1.4258,3.4418 0,1.3002 -0.5064,2.5224 -1.4258,3.4417 l -9.960799,9.9608 z"
     id="path1"
     style="fill:#4bb9ec;fill-opacity:1" />
</svg>
