<?xml version="1.0" encoding="UTF-8" standalone="no"?>
<svg
   id="icon"
   viewBox="0 0 27.184721 27.920734"
   version="1.1"
   width="27.184721"
   height="27.920734"
   xmlns="http://www.w3.org/2000/svg"
>
  <defs
     id="defs1">
    <style
       id="style1">.cls-1{fill:none;}</style>
  </defs>
  <title
     id="title1">settings</title>
  <path
     d="m 24.587162,14.720367 c 0,-0.25 0,-0.5 0,-0.76 0,-0.26 0,-0.51 0,-0.77 l 1.92,-1.68 a 2,2 0 0 0 0.38,-2.5499999 l -2.36,-4 a 2,2 0 0 0 -1.73,-1 2,2 0 0 0 -0.64,0.1 l -2.43,0.82 a 11.35,11.35 0 0 0 -1.31,-0.75 l -0.51,-2.52 a 2,2 0 0 0 -2,-1.60999995005 h -4.68 A 2,2 0 0 0 9.2271623,1.6103671 l -0.51,2.52 a 11.48,11.48 0 0 0 -1.32,0.75 l -2.38,-0.86 a 2,2 0 0 0 -0.64,-0.06 2,2 0 0 0 -1.73,1 l -2.35999998,4 a 2,2 0 0 0 0.41,2.5099999 l 1.88999998,1.73 c 0,0.25 0,0.5 0,0.76 0,0.26 0,0.51 0,0.77 l -1.88999998,1.68 a 2,2 0 0 0 -0.41,2.55 l 2.35999998,4 a 2,2 0 0 0 1.73,1 2,2 0 0 0 0.64,-0.1 l 2.43,-0.82 a 11.35,11.35 0 0 0 1.31,0.75 l 0.51,2.52 a 2,2 0 0 0 1.9999997,1.61 h 4.72 a 2,2 0 0 0 2,-1.61 l 0.51,-2.52 a 11.48,11.48 0 0 0 1.32,-0.75 l 2.42,0.82 a 2,2 0 0 0 0.64,0.1 2,2 0 0 0 1.73,-1 l 2.28,-4 a 2,2 0 0 0 -0.41,-2.51 z m -1.79,7.24 -3.43,-1.16 a 8.86,8.86 0 0 1 -2.71,1.57 l -0.71,3.59 h -4.72 l -0.71,-3.55 a 9.36,9.36 0 0 1 -2.6999997,-1.57 l -3.44,1.12 -2.36,-4 2.72,-2.4 a 8.9,8.9 0 0 1 0,-3.13 l -2.72,-2.4699999 2.36,-4 3.43,1.16 a 8.86,8.86 0 0 1 2.7099997,-1.57 l 0.71,-3.59 h 4.72 l 0.71,3.55 a 9.36,9.36 0 0 1 2.7,1.57 l 3.44,-1.12 2.36,4 -2.72,2.3999999 a 8.9,8.9 0 0 1 0,3.13 l 2.72,2.47 z"
     id="path1"
     style="fill:#4bb9ec;fill-opacity:1" />
  <path
     d="m 13.587162,19.960367 a 6,6 0 1 1 6,-6 5.94,5.94 0 0 1 -6,6 z m 0,-9.9999999 a 3.91,3.91 0 0 0 -3.9999997,3.9999999 3.91,3.91 0 0 0 3.9999997,4 3.91,3.91 0 0 0 4,-4 3.91,3.91 0 0 0 -4,-3.9999999 z"
     id="path2"
     style="fill:#f69923;fill-opacity:1" />
  <metadata
     id="metadata2">
  </metadata>
</svg>
