<?xml version="1.0" encoding="UTF-8" standalone="no"?>
<svg
        height="800px"
        width="800px"
        version="1.1"
        id="Layer_1"
        viewBox="0 0 392.672 392.672"
        xml:space="preserve"
        xmlns="http://www.w3.org/2000/svg"
><defs
   id="defs12" />
    <g id="g11">
	<path stroke-width="12px" stroke="#f5921b" fill="#f5921b"
            d="M301.645,86.368l19.329-19.329c4.267-4.267,4.267-11.119,0-15.45   c-4.267-4.267-11.119-4.267-15.451,0l-19.329,19.329c-4.267,4.267-4.267,11.119,0,15.451   C290.461,90.634,297.378,90.634,301.645,86.368z"
            id="path2">
            <animate attributeName="opacity" values="1;0.3;1" dur="1.5s" begin="0.2s" repeatCount="indefinite" />
        </path>
        <path stroke-width="12px" stroke="#f5921b" fill="#f5921b"
                d="M301.645,266.214c-4.267-4.267-11.119-4.267-15.451,0c-4.267,4.267-4.267,11.119,0,15.451   l19.329,19.329c4.267,4.267,11.119,4.267,15.451,0c4.267-4.267,4.267-11.119,0-15.451L301.645,266.214z"
                id="path3">
            <animate attributeName="opacity" values="1;0.3;1" dur="1.5s" begin="0s" repeatCount="indefinite" />
        </path>
        <path stroke-width="12px" stroke="#f5921b" fill="#f5921b"
                d="M91.027,86.368c4.267,4.267,11.119,4.267,15.451,0c4.267-4.267,4.267-11.119,0-15.451L87.148,51.588   c-4.267-4.267-11.119-4.267-15.451,0c-4.331,4.267-4.267,11.119,0,15.45L91.027,86.368z"
                id="path4">
            <animate attributeName="opacity" values="1;0.3;1" dur="1.5s" begin="0s" repeatCount="indefinite" />
        </path>
        <path
                d="M298.412,161.228c-6.206-52.493-52.881-88.178-102.077-88.178   c-56.889,0-103.176,46.287-103.176,103.24c0,32.582,14.933,62.578,40.986,82.295c11.83,8.986,18.554,22.174,18.554,36.396v14.998   c-0.388,6.206,6.335,12.347,13.317,10.667l65.552-14.998c4.913-1.164,8.469-5.56,8.469-10.667c0-14.158,6.982-27.539,19.006-36.784   C289.039,235.248,303.713,199.046,298.412,161.228z M245.726,240.937c-14.998,11.507-24.566,27.669-26.958,45.253l-44.347,8.792   c0-21.075-9.891-40.727-27.216-53.786c-20.493-15.515-32.323-39.176-32.323-64.905c0-44.865,36.461-81.39,81.39-81.39   c38.659,1.487,72.727,27.539,80.549,69.366C281.087,194.198,269.451,222.836,245.726,240.937z"
                id="path5"/>
        <path
                d="M165.952,356.461l65.616-14.998c5.883-1.293,9.568-7.176,8.21-13.059   c-1.293-5.883-7.176-9.503-13.059-8.21l-65.616,14.998c-5.883,1.293-9.568,7.176-8.21,13.059   C153.992,353.939,160.457,358.077,165.952,356.461z"
                id="path6"/>
        <path
                d="M226.72,356.137l-65.616,14.998c-5.883,1.293-9.568,7.176-8.21,13.059   c1.616,6.4,7.758,9.438,13.059,8.21l65.616-14.998c5.883-1.293,9.568-7.176-8.21-13.059   C238.421,358.465,232.602,354.715,226.72,356.137z"
                id="path7"/>
        <path stroke-width="12px" stroke="#f5921b" fill="#f5921b"
                d="M196.336,49.196c6.012,0,10.925-4.848,10.925-10.925V10.925C207.261,4.913,202.412,0,196.336,0   c-6.012,0-10.925,4.848-10.925,10.925v27.281C185.41,44.283,190.324,49.196,196.336,49.196z"
                id="path8">
            <animate attributeName="opacity" values="1;0.3;1" dur="1.5s" begin="0s" repeatCount="indefinite" />
        </path>
        <path stroke-width="12px" stroke="#f5921b" fill="#f5921b"
                d="M361.637,165.366h-27.281c-6.012,0-10.925,4.848-10.925,10.925s4.848,10.925,10.925,10.925h27.281   c6.012,0,10.925-4.848,10.925-10.925C372.627,170.279,367.649,165.366,361.637,165.366z"
                id="path9">
            <animate attributeName="opacity" values="1;0.3;1" dur="1.5s" begin="0s" repeatCount="indefinite" />
        </path>
        <path stroke-width="12px" stroke="#f5921b" fill="#f5921b"
                d="M58.315,165.366H31.035c-6.012,0-10.925,4.848-10.925,10.925s4.848,10.925,10.925,10.925h27.281   c6.012,0,10.925-4.848,10.925-10.925C69.241,170.279,64.328,165.366,58.315,165.366z"
                id="path10">
            <animate attributeName="opacity" values="1;0.3;1" dur="1.5s" begin="0s" repeatCount="indefinite" />
        </path>
        <path stroke-width="12px" stroke="#f5921b" fill="#f5921b"
                d="M91.027,266.214l-19.329,19.329c-4.267,4.267-4.267,11.119,0,15.451   c4.267,4.267,11.119,4.267,15.451,0l19.329-19.329c4.267-4.267,4.267-11.119,0-15.451   C102.21,261.947,95.293,261.947,91.027,266.214z"
                id="path11">
            <animate attributeName="opacity" values="1;0.3;1" dur="1.5s" begin="0s" repeatCount="indefinite" />
        </path>
</g>
    <path
            style="fill:#f5921b;fill-opacity:1"
            d="M255.229,167.37c-5.236-28.962-28.057-49.713-58.893-50.618c-32.84,0-59.604,26.764-59.604,59.604  c0,18.877,8.598,36.137,23.661,47.515c15.774,11.895,26.828,27.992,32.194,45.964l8.016-1.875  c5.624-17.261,16.549-32.711,31.806-44.347C249.863,210.295,258.396,189.285,255.229,167.37z"
            id="path12">
            <animate attributeName="opacity" values="1;0.3;1" dur="1.5s" begin="0s" repeatCount="indefinite" />
    </path>
</svg>